<svg class="main-svg" xmlns="http://www.w3.org/2000/svg" xmlns:xlink="http://www.w3.org/1999/xlink" width="1400" height="850" style="" viewBox="0 0 1400 850"><rect x="0" y="0" width="1400" height="850" style="fill: rgb(255, 255, 255); fill-opacity: 1;"/><defs id="defs-76975c"><g class="clips"><clipPath id="clip76975cxyplot" class="plotclip"><rect width="328.27333333333337" height="690"/></clipPath><clipPath id="clip76975cx2y2plot" class="plotclip"><rect width="328.2733333333333" height="690"/></clipPath><clipPath id="clip76975cx3y3plot" class="plotclip"><rect width="328.2733333333332" height="690"/></clipPath><clipPath class="axesclip" id="clip76975cx"><rect x="80" y="0" width="328.27333333333337" height="850"/></clipPath><clipPath class="axesclip" id="clip76975cy"><rect x="0" y="80" width="1400" height="690"/></clipPath><clipPath class="axesclip" id="clip76975cxy"><rect x="80" y="80" width="328.27333333333337" height="690"/></clipPath><clipPath class="axesclip" id="clip76975cy2"><rect x="0" y="80" width="1400" height="690"/></clipPath><clipPath class="axesclip" id="clip76975cxy2"><rect x="80" y="80" width="328.27333333333337" height="690"/></clipPath><clipPath class="axesclip" id="clip76975cy3"><rect x="0" y="80" width="1400" height="690"/></clipPath><clipPath class="axesclip" id="clip76975cxy3"><rect x="80" y="80" width="328.27333333333337" height="690"/></clipPath><clipPath class="axesclip" id="clip76975cx2"><rect x="516.3633333333335" y="0" width="328.2733333333333" height="850"/></clipPath><clipPath class="axesclip" id="clip76975cx2y"><rect x="516.3633333333335" y="80" width="328.2733333333333" height="690"/></clipPath><clipPath class="axesclip" id="clip76975cx2y2"><rect x="516.3633333333335" y="80" width="328.2733333333333" height="690"/></clipPath><clipPath class="axesclip" id="clip76975cx2y3"><rect x="516.3633333333335" y="80" width="328.2733333333333" height="690"/></clipPath><clipPath class="axesclip" id="clip76975cx3"><rect x="952.7266666666668" y="0" width="328.2733333333332" height="850"/></clipPath><clipPath class="axesclip" id="clip76975cx3y"><rect x="952.7266666666668" y="80" width="328.2733333333332" height="690"/></clipPath><clipPath class="axesclip" id="clip76975cx3y2"><rect x="952.7266666666668" y="80" width="328.2733333333332" height="690"/></clipPath><clipPath class="axesclip" id="clip76975cx3y3"><rect x="952.7266666666668" y="80" width="328.2733333333332" height="690"/></clipPath></g><g class="gradients"/><g class="patterns"/></defs><g class="bglayer"/><g class="layer-below"><g class="imagelayer"/><g class="shapelayer"/></g><g class="cartesianlayer"><g class="subplot xy"><g class="layer-subplot"><g class="shapelayer"/><g class="imagelayer"/></g><g class="minor-gridlayer"><g class="x"/><g class="y"/></g><g class="gridlayer"><g class="x"/><g class="y"><path class="ygrid crisp" transform="translate(0,763.11)" d="M80,0h328.27333333333337" style="stroke: rgb(226, 232, 240); stroke-opacity: 1; stroke-width: 1px;"/><path class="ygrid crisp" transform="translate(0,719.83)" d="M80,0h328.27333333333337" style="stroke: rgb(226, 232, 240); stroke-opacity: 1; stroke-width: 1px;"/><path class="ygrid crisp" transform="translate(0,662.62)" d="M80,0h328.27333333333337" style="stroke: rgb(226, 232, 240); stroke-opacity: 1; stroke-width: 1px;"/><path class="ygrid crisp" transform="translate(0,619.34)" d="M80,0h328.27333333333337" style="stroke: rgb(226, 232, 240); stroke-opacity: 1; stroke-width: 1px;"/><path class="ygrid crisp" transform="translate(0,576.05)" d="M80,0h328.27333333333337" style="stroke: rgb(226, 232, 240); stroke-opacity: 1; stroke-width: 1px;"/><path class="ygrid crisp" transform="translate(0,518.8399999999999)" d="M80,0h328.27333333333337" style="stroke: rgb(226, 232, 240); stroke-opacity: 1; stroke-width: 1px;"/><path class="ygrid crisp" transform="translate(0,475.56)" d="M80,0h328.27333333333337" style="stroke: rgb(226, 232, 240); stroke-opacity: 1; stroke-width: 1px;"/><path class="ygrid crisp" transform="translate(0,432.28)" d="M80,0h328.27333333333337" style="stroke: rgb(226, 232, 240); stroke-opacity: 1; stroke-width: 1px;"/><path class="ygrid crisp" transform="translate(0,375.06)" d="M80,0h328.27333333333337" style="stroke: rgb(226, 232, 240); stroke-opacity: 1; stroke-width: 1px;"/><path class="ygrid crisp" transform="translate(0,331.78)" d="M80,0h328.27333333333337" style="stroke: rgb(226, 232, 240); stroke-opacity: 1; stroke-width: 1px;"/><path class="ygrid crisp" transform="translate(0,288.5)" d="M80,0h328.27333333333337" style="stroke: rgb(226, 232, 240); stroke-opacity: 1; stroke-width: 1px;"/><path class="ygrid crisp" transform="translate(0,231.28)" d="M80,0h328.27333333333337" style="stroke: rgb(226, 232, 240); stroke-opacity: 1; stroke-width: 1px;"/><path class="ygrid crisp" transform="translate(0,188)" d="M80,0h328.27333333333337" style="stroke: rgb(226, 232, 240); stroke-opacity: 1; stroke-width: 1px;"/><path class="ygrid crisp" transform="translate(0,144.72)" d="M80,0h328.27333333333337" style="stroke: rgb(226, 232, 240); stroke-opacity: 1; stroke-width: 1px;"/><path class="ygrid crisp" transform="translate(0,87.5)" d="M80,0h328.27333333333337" style="stroke: rgb(226, 232, 240); stroke-opacity: 1; stroke-width: 1px;"/></g></g><g class="zerolinelayer"/><path class="xlines-below"/><path class="ylines-below"/><g class="overlines-below"/><g class="xaxislayer-below"/><g class="yaxislayer-below"/><g class="overaxes-below"/><g class="plot" transform="translate(80,80)" clip-path="url(#clip76975cxyplot)"><g class="scatterlayer mlayer"><g class="trace scatter trace6651cd" style="stroke-miterlimit: 2; opacity: 1;"><g class="fills"/><g class="errorbars"/><g class="lines"/><g class="points"><path class="point plotly-customdata" transform="translate(120.54,505.73)" d="M5,0A5,5 0 1,1 0,-5A5,5 0 0,1 5,0Z" style="opacity: 1; stroke-width: 0.8px; fill: rgb(37, 99, 235); fill-opacity: 1; stroke: rgb(255, 255, 255); stroke-opacity: 1;"/><path class="point plotly-customdata" transform="translate(305.61,331.38)" d="M5,0A5,5 0 1,1 0,-5A5,5 0 0,1 5,0Z" style="opacity: 1; stroke-width: 0.8px; fill: rgb(37, 99, 235); fill-opacity: 1; stroke: rgb(255, 255, 255); stroke-opacity: 1;"/><path class="point plotly-customdata" transform="translate(40.46,369.47)" d="M5,0A5,5 0 1,1 0,-5A5,5 0 0,1 5,0Z" style="opacity: 1; stroke-width: 0.8px; fill: rgb(37, 99, 235); fill-opacity: 1; stroke: rgb(255, 255, 255); stroke-opacity: 1;"/><path class="point plotly-customdata" transform="translate(90.29,380.85)" d="M5,0A5,5 0 1,1 0,-5A5,5 0 0,1 5,0Z" style="opacity: 1; stroke-width: 0.8px; fill: rgb(37, 99, 235); fill-opacity: 1; stroke: rgb(255, 255, 255); stroke-opacity: 1;"/><path class="point plotly-customdata" transform="translate(22.66,482.6)" d="M5,0A5,5 0 1,1 0,-5A5,5 0 0,1 5,0Z" style="opacity: 1; stroke-width: 0.8px; fill: rgb(37, 99, 235); fill-opacity: 1; stroke: rgb(255, 255, 255); stroke-opacity: 1;"/><path class="point plotly-customdata" transform="translate(77.83,40.75)" d="M5,0A5,5 0 1,1 0,-5A5,5 0 0,1 5,0Z" style="opacity: 1; stroke-width: 0.8px; fill: rgb(37, 99, 235); fill-opacity: 1; stroke: rgb(255, 255, 255); stroke-opacity: 1;"/><path class="point plotly-customdata" transform="translate(22.66,649.25)" d="M5,0A5,5 0 1,1 0,-5A5,5 0 0,1 5,0Z" style="opacity: 1; stroke-width: 0.8px; fill: rgb(37, 99, 235); fill-opacity: 1; stroke: rgb(255, 255, 255); stroke-opacity: 1;"/><path class="point plotly-customdata" transform="translate(150.79,261.74)" d="M5,0A5,5 0 1,1 0,-5A5,5 0 0,1 5,0Z" style="opacity: 1; stroke-width: 0.8px; fill: rgb(37, 99, 235); fill-opacity: 1; stroke: rgb(255, 255, 255); stroke-opacity: 1;"/><path class="point plotly-customdata" transform="translate(34.53,501.33)" d="M5,0A5,5 0 1,1 0,-5A5,5 0 0,1 5,0Z" style="opacity: 1; stroke-width: 0.8px; fill: rgb(37, 99, 235); fill-opacity: 1; stroke: rgb(255, 255, 255); stroke-opacity: 1;"/></g><g class="text"/></g><g class="trace scatter traceea3105" style="stroke-miterlimit: 2; opacity: 1;"><g class="fills"/><g class="errorbars"/><g class="lines"/><g class="points"><path class="point plotly-customdata" transform="translate(22.66,424)" d="M5,0A5,5 0 1,1 0,-5A5,5 0 0,1 5,0Z" style="opacity: 1; stroke-width: 0.8px; fill: rgb(217, 119, 6); fill-opacity: 1; stroke: rgb(255, 255, 255); stroke-opacity: 1;"/><path class="point plotly-customdata" transform="translate(51.33,423)" d="M5,0A5,5 0 1,1 0,-5A5,5 0 0,1 5,0Z" style="opacity: 1; stroke-width: 0.8px; fill: rgb(217, 119, 6); fill-opacity: 1; stroke: rgb(255, 255, 255); stroke-opacity: 1;"/><path class="point plotly-customdata" transform="translate(51.58,641.09)" d="M5,0A5,5 0 1,1 0,-5A5,5 0 0,1 5,0Z" style="opacity: 1; stroke-width: 0.8px; fill: rgb(217, 119, 6); fill-opacity: 1; stroke: rgb(255, 255, 255); stroke-opacity: 1;"/><path class="point plotly-customdata" transform="translate(89.4,353.96)" d="M5,0A5,5 0 1,1 0,-5A5,5 0 0,1 5,0Z" style="opacity: 1; stroke-width: 0.8px; fill: rgb(217, 119, 6); fill-opacity: 1; stroke: rgb(255, 255, 255); stroke-opacity: 1;"/><path class="point plotly-customdata" transform="translate(55.59,410.86)" d="M5,0A5,5 0 1,1 0,-5A5,5 0 0,1 5,0Z" style="opacity: 1; stroke-width: 0.8px; fill: rgb(217, 119, 6); fill-opacity: 1; stroke: rgb(255, 255, 255); stroke-opacity: 1;"/></g><g class="text"/></g></g></g><g class="overplot"/><path class="xlines-above crisp" d="M79,770.5H408.27333333333337" style="fill: none; stroke-width: 1px; stroke: rgb(203, 213, 225); stroke-opacity: 1;"/><path class="ylines-above crisp" d="M79.5,80V770" style="fill: none; stroke-width: 1px; stroke: rgb(203, 213, 225); stroke-opacity: 1;"/><g class="overlines-above"/><g class="xaxislayer-above"><g class="xtick"><text text-anchor="middle" x="0" y="785.4" transform="translate(93.77,0)" style="font-family: Arial, sans-serif; font-size: 12px; fill: rgb(30, 41, 59); fill-opacity: 1; white-space: pre; opacity: 1;">0</text></g><g class="xtick"><text text-anchor="middle" x="0" y="785.4" style="font-family: Arial, sans-serif; font-size: 12px; fill: rgb(30, 41, 59); fill-opacity: 1; white-space: pre; opacity: 1;" transform="translate(182.74,0)">10</text></g><g class="xtick"><text text-anchor="middle" x="0" y="785.4" style="font-family: Arial, sans-serif; font-size: 12px; fill: rgb(30, 41, 59); fill-opacity: 1; white-space: pre; opacity: 1;" transform="translate(271.72,0)">20</text></g><g class="xtick"><text text-anchor="middle" x="0" y="785.4" style="font-family: Arial, sans-serif; font-size: 12px; fill: rgb(30, 41, 59); fill-opacity: 1; white-space: pre; opacity: 1;" transform="translate(360.7,0)">30</text></g></g><g class="yaxislayer-above"><g class="ytick"><text text-anchor="end" x="76.6" y="4.199999999999999" transform="translate(0,763.11)" style="font-family: Arial, sans-serif; font-size: 12px; fill: rgb(30, 41, 59); fill-opacity: 1; white-space: pre; opacity: 1;">100</text></g><g class="ytick"><text text-anchor="end" x="76.6" y="3.15" style="font-family: Arial, sans-serif; font-size: 9px; fill: rgb(30, 41, 59); fill-opacity: 1; white-space: pre; opacity: 1;" transform="translate(0,719.83)">2</text></g><g class="ytick"><text text-anchor="end" x="76.6" y="3.15" style="font-family: Arial, sans-serif; font-size: 9px; fill: rgb(30, 41, 59); fill-opacity: 1; white-space: pre; opacity: 1;" transform="translate(0,662.62)">5</text></g><g class="ytick"><text text-anchor="end" x="76.6" y="4.199999999999999" style="font-family: Arial, sans-serif; font-size: 12px; fill: rgb(30, 41, 59); fill-opacity: 1; white-space: pre; opacity: 1;" transform="translate(0,619.34)">1000</text></g><g class="ytick"><text text-anchor="end" x="76.6" y="3.15" style="font-family: Arial, sans-serif; font-size: 9px; fill: rgb(30, 41, 59); fill-opacity: 1; white-space: pre; opacity: 1;" transform="translate(0,576.05)">2</text></g><g class="ytick"><text text-anchor="end" x="76.6" y="3.15" style="font-family: Arial, sans-serif; font-size: 9px; fill: rgb(30, 41, 59); fill-opacity: 1; white-space: pre; opacity: 1;" transform="translate(0,518.8399999999999)">5</text></g><g class="ytick"><text text-anchor="end" x="76.6" y="4.199999999999999" style="font-family: Arial, sans-serif; font-size: 12px; fill: rgb(30, 41, 59); fill-opacity: 1; white-space: pre; opacity: 1;" transform="translate(0,475.56)">10k</text></g><g class="ytick"><text text-anchor="end" x="76.6" y="3.15" style="font-family: Arial, sans-serif; font-size: 9px; fill: rgb(30, 41, 59); fill-opacity: 1; white-space: pre; opacity: 1;" transform="translate(0,432.28)">2</text></g><g class="ytick"><text text-anchor="end" x="76.6" y="3.15" style="font-family: Arial, sans-serif; font-size: 9px; fill: rgb(30, 41, 59); fill-opacity: 1; white-space: pre; opacity: 1;" transform="translate(0,375.06)">5</text></g><g class="ytick"><text text-anchor="end" x="76.6" y="4.199999999999999" style="font-family: Arial, sans-serif; font-size: 12px; fill: rgb(30, 41, 59); fill-opacity: 1; white-space: pre; opacity: 1;" transform="translate(0,331.78)">100k</text></g><g class="ytick"><text text-anchor="end" x="76.6" y="3.15" style="font-family: Arial, sans-serif; font-size: 9px; fill: rgb(30, 41, 59); fill-opacity: 1; white-space: pre; opacity: 1;" transform="translate(0,288.5)">2</text></g><g class="ytick"><text text-anchor="end" x="76.6" y="3.15" style="font-family: Arial, sans-serif; font-size: 9px; fill: rgb(30, 41, 59); fill-opacity: 1; white-space: pre; opacity: 1;" transform="translate(0,231.28)">5</text></g><g class="ytick"><text text-anchor="end" x="76.6" y="4.199999999999999" style="font-family: Arial, sans-serif; font-size: 12px; fill: rgb(30, 41, 59); fill-opacity: 1; white-space: pre; opacity: 1;" transform="translate(0,188)">1M</text></g><g class="ytick"><text text-anchor="end" x="76.6" y="3.15" style="font-family: Arial, sans-serif; font-size: 9px; fill: rgb(30, 41, 59); fill-opacity: 1; white-space: pre; opacity: 1;" transform="translate(0,144.72)">2</text></g><g class="ytick"><text text-anchor="end" x="76.6" y="3.15" style="font-family: Arial, sans-serif; font-size: 9px; fill: rgb(30, 41, 59); fill-opacity: 1; white-space: pre; opacity: 1;" transform="translate(0,87.5)">5</text></g></g><g class="overaxes-above"/></g><g class="subplot x2y2"><g class="layer-subplot"><g class="shapelayer"/><g class="imagelayer"/></g><g class="minor-gridlayer"><g class="x2"/><g class="y2"/></g><g class="gridlayer"><g class="x2"/><g class="y2"><path class="y2grid crisp" transform="translate(0,729.25)" d="M516.3633333333335,0h328.2733333333333" style="stroke: rgb(226, 232, 240); stroke-opacity: 1; stroke-width: 1px;"/><path class="y2grid crisp" transform="translate(0,641.26)" d="M516.3633333333335,0h328.2733333333333" style="stroke: rgb(226, 232, 240); stroke-opacity: 1; stroke-width: 1px;"/><path class="y2grid crisp" transform="translate(0,574.7)" d="M516.3633333333335,0h328.2733333333333" style="stroke: rgb(226, 232, 240); stroke-opacity: 1; stroke-width: 1px;"/><path class="y2grid crisp" transform="translate(0,508.14)" d="M516.3633333333335,0h328.2733333333333" style="stroke: rgb(226, 232, 240); stroke-opacity: 1; stroke-width: 1px;"/><path class="y2grid crisp" transform="translate(0,420.15)" d="M516.3633333333335,0h328.2733333333333" style="stroke: rgb(226, 232, 240); stroke-opacity: 1; stroke-width: 1px;"/><path class="y2grid crisp" transform="translate(0,353.59)" d="M516.3633333333335,0h328.2733333333333" style="stroke: rgb(226, 232, 240); stroke-opacity: 1; stroke-width: 1px;"/><path class="y2grid crisp" transform="translate(0,287.03)" d="M516.3633333333335,0h328.2733333333333" style="stroke: rgb(226, 232, 240); stroke-opacity: 1; stroke-width: 1px;"/><path class="y2grid crisp" transform="translate(0,199.05)" d="M516.3633333333335,0h328.2733333333333" style="stroke: rgb(226, 232, 240); stroke-opacity: 1; stroke-width: 1px;"/><path class="y2grid crisp" transform="translate(0,132.49)" d="M516.3633333333335,0h328.2733333333333" style="stroke: rgb(226, 232, 240); stroke-opacity: 1; stroke-width: 1px;"/></g></g><g class="zerolinelayer"/><path class="xlines-below"/><path class="ylines-below"/><g class="overlines-below"/><g class="xaxislayer-below"/><g class="yaxislayer-below"/><g class="overaxes-below"/><g class="plot" transform="translate(516.3633333333335,80)" clip-path="url(#clip76975cx2y2plot)"><g class="scatterlayer mlayer"><g class="trace scatter trace2b4986" style="stroke-miterlimit: 2; opacity: 1;"><g class="fills"/><g class="errorbars"/><g class="lines"/><g class="points"><path class="point plotly-customdata" transform="translate(120.54,90.23)" d="M5,0A5,5 0 1,1 0,-5A5,5 0 0,1 5,0Z" style="opacity: 1; stroke-width: 0.8px; fill: rgb(37, 99, 235); fill-opacity: 1; stroke: rgb(255, 255, 255); stroke-opacity: 1;"/><path class="point plotly-customdata" transform="translate(305.61,383.01)" d="M5,0A5,5 0 1,1 0,-5A5,5 0 0,1 5,0Z" style="opacity: 1; stroke-width: 0.8px; fill: rgb(37, 99, 235); fill-opacity: 1; stroke: rgb(255, 255, 255); stroke-opacity: 1;"/><path class="point plotly-customdata" transform="translate(40.46,504.82)" d="M5,0A5,5 0 1,1 0,-5A5,5 0 0,1 5,0Z" style="opacity: 1; stroke-width: 0.8px; fill: rgb(37, 99, 235); fill-opacity: 1; stroke: rgb(255, 255, 255); stroke-opacity: 1;"/><path class="point plotly-customdata" transform="translate(90.29,40.75)" d="M5,0A5,5 0 1,1 0,-5A5,5 0 0,1 5,0Z" style="opacity: 1; stroke-width: 0.8px; fill: rgb(37, 99, 235); fill-opacity: 1; stroke: rgb(255, 255, 255); stroke-opacity: 1;"/><path class="point plotly-customdata" transform="translate(22.66,649.25)" d="M5,0A5,5 0 1,1 0,-5A5,5 0 0,1 5,0Z" style="opacity: 1; stroke-width: 0.8px; fill: rgb(37, 99, 235); fill-opacity: 1; stroke: rgb(255, 255, 255); stroke-opacity: 1;"/><path class="point plotly-customdata" transform="translate(77.83,201.44)" d="M5,0A5,5 0 1,1 0,-5A5,5 0 0,1 5,0Z" style="opacity: 1; stroke-width: 0.8px; fill: rgb(37, 99, 235); fill-opacity: 1; stroke: rgb(255, 255, 255); stroke-opacity: 1;"/><path class="point plotly-customdata" transform="translate(22.66,504.82)" d="M5,0A5,5 0 1,1 0,-5A5,5 0 0,1 5,0Z" style="opacity: 1; stroke-width: 0.8px; fill: rgb(37, 99, 235); fill-opacity: 1; stroke: rgb(255, 255, 255); stroke-opacity: 1;"/><path class="point plotly-customdata" transform="translate(150.79,282.65)" d="M5,0A5,5 0 1,1 0,-5A5,5 0 0,1 5,0Z" style="opacity: 1; stroke-width: 0.8px; fill: rgb(37, 99, 235); fill-opacity: 1; stroke: rgb(255, 255, 255); stroke-opacity: 1;"/><path class="point plotly-customdata" transform="translate(34.53,395.83)" d="M5,0A5,5 0 1,1 0,-5A5,5 0 0,1 5,0Z" style="opacity: 1; stroke-width: 0.8px; fill: rgb(37, 99, 235); fill-opacity: 1; stroke: rgb(255, 255, 255); stroke-opacity: 1;"/></g><g class="text"/></g><g class="trace scatter tracefab399" style="stroke-miterlimit: 2; opacity: 1;"><g class="fills"/><g class="errorbars"/><g class="lines"/><g class="points"><path class="point plotly-customdata" transform="translate(22.66,418.99)" d="M5,0A5,5 0 1,1 0,-5A5,5 0 0,1 5,0Z" style="opacity: 1; stroke-width: 0.8px; fill: rgb(217, 119, 6); fill-opacity: 1; stroke: rgb(255, 255, 255); stroke-opacity: 1;"/><path class="point plotly-customdata" transform="translate(51.33,438.26)" d="M5,0A5,5 0 1,1 0,-5A5,5 0 0,1 5,0Z" style="opacity: 1; stroke-width: 0.8px; fill: rgb(217, 119, 6); fill-opacity: 1; stroke: rgb(255, 255, 255); stroke-opacity: 1;"/><path class="point plotly-customdata" transform="translate(51.58,443.75)" d="M5,0A5,5 0 1,1 0,-5A5,5 0 0,1 5,0Z" style="opacity: 1; stroke-width: 0.8px; fill: rgb(217, 119, 6); fill-opacity: 1; stroke: rgb(255, 255, 255); stroke-opacity: 1;"/><path class="point plotly-customdata" transform="translate(89.4,369.07)" d="M5,0A5,5 0 1,1 0,-5A5,5 0 0,1 5,0Z" style="opacity: 1; stroke-width: 0.8px; fill: rgb(217, 119, 6); fill-opacity: 1; stroke: rgb(255, 255, 255); stroke-opacity: 1;"/><path class="point plotly-customdata" transform="translate(55.59,504.82)" d="M5,0A5,5 0 1,1 0,-5A5,5 0 0,1 5,0Z" style="opacity: 1; stroke-width: 0.8px; fill: rgb(217, 119, 6); fill-opacity: 1; stroke: rgb(255, 255, 255); stroke-opacity: 1;"/></g><g class="text"/></g></g></g><g class="overplot"/><path class="xlines-above crisp" d="M515.3633333333335,770.5H844.6366666666668" style="fill: none; stroke-width: 1px; stroke: rgb(203, 213, 225); stroke-opacity: 1;"/><path class="ylines-above crisp" d="M515.8633333333335,80V770" style="fill: none; stroke-width: 1px; stroke: rgb(203, 213, 225); stroke-opacity: 1;"/><g class="overlines-above"/><g class="xaxislayer-above"><g class="x2tick"><text text-anchor="middle" x="0" y="785.4" transform="translate(530.1333333333334,0)" style="font-family: Arial, sans-serif; font-size: 12px; fill: rgb(30, 41, 59); fill-opacity: 1; white-space: pre; opacity: 1;">0</text></g><g class="x2tick"><text text-anchor="middle" x="0" y="785.4" style="font-family: Arial, sans-serif; font-size: 12px; fill: rgb(30, 41, 59); fill-opacity: 1; white-space: pre; opacity: 1;" transform="translate(619.1033333333335,0)">10</text></g><g class="x2tick"><text text-anchor="middle" x="0" y="785.4" style="font-family: Arial, sans-serif; font-size: 12px; fill: rgb(30, 41, 59); fill-opacity: 1; white-space: pre; opacity: 1;" transform="translate(708.0833333333335,0)">20</text></g><g class="x2tick"><text text-anchor="middle" x="0" y="785.4" style="font-family: Arial, sans-serif; font-size: 12px; fill: rgb(30, 41, 59); fill-opacity: 1; white-space: pre; opacity: 1;" transform="translate(797.0633333333335,0)">30</text></g></g><g class="yaxislayer-above"><g class="y2tick"><text text-anchor="end" x="512.9633333333335" y="3.15" transform="translate(0,729.25)" style="font-family: Arial, sans-serif; font-size: 9px; fill: rgb(30, 41, 59); fill-opacity: 1; white-space: pre; opacity: 1;">2</text></g><g class="y2tick"><text text-anchor="end" x="512.9633333333335" y="3.15" style="font-family: Arial, sans-serif; font-size: 9px; fill: rgb(30, 41, 59); fill-opacity: 1; white-space: pre; opacity: 1;" transform="translate(0,641.26)">5</text></g><g class="y2tick"><text text-anchor="end" x="512.9633333333335" y="4.199999999999999" style="font-family: Arial, sans-serif; font-size: 12px; fill: rgb(30, 41, 59); fill-opacity: 1; white-space: pre; opacity: 1;" transform="translate(0,574.7)">10</text></g><g class="y2tick"><text text-anchor="end" x="512.9633333333335" y="3.15" style="font-family: Arial, sans-serif; font-size: 9px; fill: rgb(30, 41, 59); fill-opacity: 1; white-space: pre; opacity: 1;" transform="translate(0,508.14)">2</text></g><g class="y2tick"><text text-anchor="end" x="512.9633333333335" y="3.15" style="font-family: Arial, sans-serif; font-size: 9px; fill: rgb(30, 41, 59); fill-opacity: 1; white-space: pre; opacity: 1;" transform="translate(0,420.15)">5</text></g><g class="y2tick"><text text-anchor="end" x="512.9633333333335" y="4.199999999999999" style="font-family: Arial, sans-serif; font-size: 12px; fill: rgb(30, 41, 59); fill-opacity: 1; white-space: pre; opacity: 1;" transform="translate(0,353.59)">100</text></g><g class="y2tick"><text text-anchor="end" x="512.9633333333335" y="3.15" style="font-family: Arial, sans-serif; font-size: 9px; fill: rgb(30, 41, 59); fill-opacity: 1; white-space: pre; opacity: 1;" transform="translate(0,287.03)">2</text></g><g class="y2tick"><text text-anchor="end" x="512.9633333333335" y="3.15" style="font-family: Arial, sans-serif; font-size: 9px; fill: rgb(30, 41, 59); fill-opacity: 1; white-space: pre; opacity: 1;" transform="translate(0,199.05)">5</text></g><g class="y2tick"><text text-anchor="end" x="512.9633333333335" y="4.199999999999999" style="font-family: Arial, sans-serif; font-size: 12px; fill: rgb(30, 41, 59); fill-opacity: 1; white-space: pre; opacity: 1;" transform="translate(0,132.49)">1000</text></g></g><g class="overaxes-above"/></g><g class="subplot x3y3"><g class="layer-subplot"><g class="shapelayer"/><g class="imagelayer"/></g><g class="minor-gridlayer"><g class="x3"/><g class="y3"/></g><g class="gridlayer"><g class="x3"/><g class="y3"><path class="y3grid crisp" transform="translate(0,729.25)" d="M952.7266666666668,0h328.2733333333332" style="stroke: rgb(226, 232, 240); stroke-opacity: 1; stroke-width: 1px;"/><path class="y3grid crisp" transform="translate(0,686.87)" d="M952.7266666666668,0h328.2733333333332" style="stroke: rgb(226, 232, 240); stroke-opacity: 1; stroke-width: 1px;"/><path class="y3grid crisp" transform="translate(0,656.8)" d="M952.7266666666668,0h328.2733333333332" style="stroke: rgb(226, 232, 240); stroke-opacity: 1; stroke-width: 1px;"/><path class="y3grid crisp" transform="translate(0,633.47)" d="M952.7266666666668,0h328.2733333333332" style="stroke: rgb(226, 232, 240); stroke-opacity: 1; stroke-width: 1px;"/><path class="y3grid crisp" transform="translate(0,614.42)" d="M952.7266666666668,0h328.2733333333332" style="stroke: rgb(226, 232, 240); stroke-opacity: 1; stroke-width: 1px;"/><path class="y3grid crisp" transform="translate(0,598.3)" d="M952.7266666666668,0h328.2733333333332" style="stroke: rgb(226, 232, 240); stroke-opacity: 1; stroke-width: 1px;"/><path class="y3grid crisp" transform="translate(0,584.35)" d="M952.7266666666668,0h328.2733333333332" style="stroke: rgb(226, 232, 240); stroke-opacity: 1; stroke-width: 1px;"/><path class="y3grid crisp" transform="translate(0,572.04)" d="M952.7266666666668,0h328.2733333333332" style="stroke: rgb(226, 232, 240); stroke-opacity: 1; stroke-width: 1px;"/><path class="y3grid crisp" transform="translate(0,561.02)" d="M952.7266666666668,0h328.2733333333332" style="stroke: rgb(226, 232, 240); stroke-opacity: 1; stroke-width: 1px;"/><path class="y3grid crisp" transform="translate(0,488.57)" d="M952.7266666666668,0h328.2733333333332" style="stroke: rgb(226, 232, 240); stroke-opacity: 1; stroke-width: 1px;"/><path class="y3grid crisp" transform="translate(0,446.19)" d="M952.7266666666668,0h328.2733333333332" style="stroke: rgb(226, 232, 240); stroke-opacity: 1; stroke-width: 1px;"/><path class="y3grid crisp" transform="translate(0,416.12)" d="M952.7266666666668,0h328.2733333333332" style="stroke: rgb(226, 232, 240); stroke-opacity: 1; stroke-width: 1px;"/><path class="y3grid crisp" transform="translate(0,392.8)" d="M952.7266666666668,0h328.2733333333332" style="stroke: rgb(226, 232, 240); stroke-opacity: 1; stroke-width: 1px;"/><path class="y3grid crisp" transform="translate(0,373.74)" d="M952.7266666666668,0h328.2733333333332" style="stroke: rgb(226, 232, 240); stroke-opacity: 1; stroke-width: 1px;"/><path class="y3grid crisp" transform="translate(0,357.63)" d="M952.7266666666668,0h328.2733333333332" style="stroke: rgb(226, 232, 240); stroke-opacity: 1; stroke-width: 1px;"/><path class="y3grid crisp" transform="translate(0,343.67)" d="M952.7266666666668,0h328.2733333333332" style="stroke: rgb(226, 232, 240); stroke-opacity: 1; stroke-width: 1px;"/><path class="y3grid crisp" transform="translate(0,331.36)" d="M952.7266666666668,0h328.2733333333332" style="stroke: rgb(226, 232, 240); stroke-opacity: 1; stroke-width: 1px;"/><path class="y3grid crisp" transform="translate(0,320.35)" d="M952.7266666666668,0h328.2733333333332" style="stroke: rgb(226, 232, 240); stroke-opacity: 1; stroke-width: 1px;"/><path class="y3grid crisp" transform="translate(0,247.89)" d="M952.7266666666668,0h328.2733333333332" style="stroke: rgb(226, 232, 240); stroke-opacity: 1; stroke-width: 1px;"/><path class="y3grid crisp" transform="translate(0,205.51)" d="M952.7266666666668,0h328.2733333333332" style="stroke: rgb(226, 232, 240); stroke-opacity: 1; stroke-width: 1px;"/><path class="y3grid crisp" transform="translate(0,175.44)" d="M952.7266666666668,0h328.2733333333332" style="stroke: rgb(226, 232, 240); stroke-opacity: 1; stroke-width: 1px;"/><path class="y3grid crisp" transform="translate(0,152.12)" d="M952.7266666666668,0h328.2733333333332" style="stroke: rgb(226, 232, 240); stroke-opacity: 1; stroke-width: 1px;"/><path class="y3grid crisp" transform="translate(0,133.06)" d="M952.7266666666668,0h328.2733333333332" style="stroke: rgb(226, 232, 240); stroke-opacity: 1; stroke-width: 1px;"/><path class="y3grid crisp" transform="translate(0,116.95)" d="M952.7266666666668,0h328.2733333333332" style="stroke: rgb(226, 232, 240); stroke-opacity: 1; stroke-width: 1px;"/><path class="y3grid crisp" transform="translate(0,102.99)" d="M952.7266666666668,0h328.2733333333332" style="stroke: rgb(226, 232, 240); stroke-opacity: 1; stroke-width: 1px;"/><path class="y3grid crisp" transform="translate(0,90.68)" d="M952.7266666666668,0h328.2733333333332" style="stroke: rgb(226, 232, 240); stroke-opacity: 1; stroke-width: 1px;"/></g></g><g class="zerolinelayer"/><path class="xlines-below"/><path class="ylines-below"/><g class="overlines-below"/><g class="xaxislayer-below"/><g class="yaxislayer-below"/><g class="overaxes-below"/><g class="plot" transform="translate(952.7266666666668,80)" clip-path="url(#clip76975cx3y3plot)"><g class="scatterlayer mlayer"><g class="trace scatter tracefeec9f" style="stroke-miterlimit: 2; opacity: 1;"><g class="fills"/><g class="errorbars"/><g class="lines"/><g class="points"><path class="point plotly-customdata" transform="translate(120.54,40.75)" d="M5,0A5,5 0 1,1 0,-5A5,5 0 0,1 5,0Z" style="opacity: 1; stroke-width: 0.8px; fill: rgb(37, 99, 235); fill-opacity: 1; stroke: rgb(255, 255, 255); stroke-opacity: 1;"/><path class="point plotly-customdata" transform="translate(305.61,431.9)" d="M5,0A5,5 0 1,1 0,-5A5,5 0 0,1 5,0Z" style="opacity: 1; stroke-width: 0.8px; fill: rgb(37, 99, 235); fill-opacity: 1; stroke: rgb(255, 255, 255); stroke-opacity: 1;"/><path class="point plotly-customdata" transform="translate(40.46,492.04)" d="M5,0A5,5 0 1,1 0,-5A5,5 0 0,1 5,0Z" style="opacity: 1; stroke-width: 0.8px; fill: rgb(37, 99, 235); fill-opacity: 1; stroke: rgb(255, 255, 255); stroke-opacity: 1;"/><path class="point plotly-customdata" transform="translate(90.29,94.4)" d="M5,0A5,5 0 1,1 0,-5A5,5 0 0,1 5,0Z" style="opacity: 1; stroke-width: 0.8px; fill: rgb(37, 99, 235); fill-opacity: 1; stroke: rgb(255, 255, 255); stroke-opacity: 1;"/><path class="point plotly-customdata" transform="translate(22.66,649.25)" d="M5,0A5,5 0 1,1 0,-5A5,5 0 0,1 5,0Z" style="opacity: 1; stroke-width: 0.8px; fill: rgb(37, 99, 235); fill-opacity: 1; stroke: rgb(255, 255, 255); stroke-opacity: 1;"/><path class="point plotly-customdata" transform="translate(77.83,276.14)" d="M5,0A5,5 0 1,1 0,-5A5,5 0 0,1 5,0Z" style="opacity: 1; stroke-width: 0.8px; fill: rgb(37, 99, 235); fill-opacity: 1; stroke: rgb(255, 255, 255); stroke-opacity: 1;"/><path class="point plotly-customdata" transform="translate(22.66,606.87)" d="M5,0A5,5 0 1,1 0,-5A5,5 0 0,1 5,0Z" style="opacity: 1; stroke-width: 0.8px; fill: rgb(37, 99, 235); fill-opacity: 1; stroke: rgb(255, 255, 255); stroke-opacity: 1;"/><path class="point plotly-customdata" transform="translate(150.79,453.6)" d="M5,0A5,5 0 1,1 0,-5A5,5 0 0,1 5,0Z" style="opacity: 1; stroke-width: 0.8px; fill: rgb(37, 99, 235); fill-opacity: 1; stroke: rgb(255, 255, 255); stroke-opacity: 1;"/><path class="point plotly-customdata" transform="translate(34.53,553.47)" d="M5,0A5,5 0 1,1 0,-5A5,5 0 0,1 5,0Z" style="opacity: 1; stroke-width: 0.8px; fill: rgb(37, 99, 235); fill-opacity: 1; stroke: rgb(255, 255, 255); stroke-opacity: 1;"/></g><g class="text"/></g><g class="trace scatter trace69723e" style="stroke-miterlimit: 2; opacity: 1;"><g class="fills"/><g class="errorbars"/><g class="lines"/><g class="points"><path class="point plotly-customdata" transform="translate(22.66,471.06)" d="M5,0A5,5 0 1,1 0,-5A5,5 0 0,1 5,0Z" style="opacity: 1; stroke-width: 0.8px; fill: rgb(217, 119, 6); fill-opacity: 1; stroke: rgb(255, 255, 255); stroke-opacity: 1;"/><path class="point plotly-customdata" transform="translate(51.33,606.87)" d="M5,0A5,5 0 1,1 0,-5A5,5 0 0,1 5,0Z" style="opacity: 1; stroke-width: 0.8px; fill: rgb(217, 119, 6); fill-opacity: 1; stroke: rgb(255, 255, 255); stroke-opacity: 1;"/><path class="point plotly-customdata" transform="translate(51.58,504.35)" d="M5,0A5,5 0 1,1 0,-5A5,5 0 0,1 5,0Z" style="opacity: 1; stroke-width: 0.8px; fill: rgb(217, 119, 6); fill-opacity: 1; stroke: rgb(255, 255, 255); stroke-opacity: 1;"/><path class="point plotly-customdata" transform="translate(89.4,385.25)" d="M5,0A5,5 0 1,1 0,-5A5,5 0 0,1 5,0Z" style="opacity: 1; stroke-width: 0.8px; fill: rgb(217, 119, 6); fill-opacity: 1; stroke: rgb(255, 255, 255); stroke-opacity: 1;"/><path class="point plotly-customdata" transform="translate(55.59,553.47)" d="M5,0A5,5 0 1,1 0,-5A5,5 0 0,1 5,0Z" style="opacity: 1; stroke-width: 0.8px; fill: rgb(217, 119, 6); fill-opacity: 1; stroke: rgb(255, 255, 255); stroke-opacity: 1;"/></g><g class="text"/></g></g></g><g class="overplot"/><path class="xlines-above crisp" d="M951.7266666666668,770.5H1281" style="fill: none; stroke-width: 1px; stroke: rgb(203, 213, 225); stroke-opacity: 1;"/><path class="ylines-above crisp" d="M952.2266666666668,80V770" style="fill: none; stroke-width: 1px; stroke: rgb(203, 213, 225); stroke-opacity: 1;"/><g class="overlines-above"/><g class="xaxislayer-above"><g class="x3tick"><text text-anchor="middle" x="0" y="785.4" transform="translate(966.4966666666668,0)" style="font-family: Arial, sans-serif; font-size: 12px; fill: rgb(30, 41, 59); fill-opacity: 1; white-space: pre; opacity: 1;">0</text></g><g class="x3tick"><text text-anchor="middle" x="0" y="785.4" style="font-family: Arial, sans-serif; font-size: 12px; fill: rgb(30, 41, 59); fill-opacity: 1; white-space: pre; opacity: 1;" transform="translate(1055.4666666666667,0)">10</text></g><g class="x3tick"><text text-anchor="middle" x="0" y="785.4" style="font-family: Arial, sans-serif; font-size: 12px; fill: rgb(30, 41, 59); fill-opacity: 1; white-space: pre; opacity: 1;" transform="translate(1144.4466666666667,0)">20</text></g><g class="x3tick"><text text-anchor="middle" x="0" y="785.4" style="font-family: Arial, sans-serif; font-size: 12px; fill: rgb(30, 41, 59); fill-opacity: 1; white-space: pre; opacity: 1;" transform="translate(1233.4266666666667,0)">30</text></g></g><g class="yaxislayer-above"><g class="y3tick"><text text-anchor="end" x="949.3266666666668" y="3.15" transform="translate(0,729.25)" style="font-family: Arial, sans-serif; font-size: 9px; fill: rgb(30, 41, 59); fill-opacity: 1; white-space: pre; opacity: 1;">2</text></g><g class="y3tick"><text text-anchor="end" x="949.3266666666668" y="3.15" style="font-family: Arial, sans-serif; font-size: 9px; fill: rgb(30, 41, 59); fill-opacity: 1; white-space: pre; opacity: 1;" transform="translate(0,686.87)">3</text></g><g class="y3tick"><text text-anchor="end" x="949.3266666666668" y="3.15" style="font-family: Arial, sans-serif; font-size: 9px; fill: rgb(30, 41, 59); fill-opacity: 1; white-space: pre; opacity: 1;" transform="translate(0,656.8)">4</text></g><g class="y3tick"><text text-anchor="end" x="949.3266666666668" y="3.15" style="font-family: Arial, sans-serif; font-size: 9px; fill: rgb(30, 41, 59); fill-opacity: 1; white-space: pre; opacity: 1;" transform="translate(0,633.47)">5</text></g><g class="y3tick"><text text-anchor="end" x="949.3266666666668" y="3.15" style="font-family: Arial, sans-serif; font-size: 9px; fill: rgb(30, 41, 59); fill-opacity: 1; white-space: pre; opacity: 1;" transform="translate(0,614.42)">6</text></g><g class="y3tick"><text text-anchor="end" x="949.3266666666668" y="3.15" style="font-family: Arial, sans-serif; font-size: 9px; fill: rgb(30, 41, 59); fill-opacity: 1; white-space: pre; opacity: 1;" transform="translate(0,598.3)">7</text></g><g class="y3tick"><text text-anchor="end" x="949.3266666666668" y="3.15" style="font-family: Arial, sans-serif; font-size: 9px; fill: rgb(30, 41, 59); fill-opacity: 1; white-space: pre; opacity: 1;" transform="translate(0,584.35)">8</text></g><g class="y3tick"><text text-anchor="end" x="949.3266666666668" y="3.15" style="font-family: Arial, sans-serif; font-size: 9px; fill: rgb(30, 41, 59); fill-opacity: 1; white-space: pre; opacity: 1;" transform="translate(0,572.04)">9</text></g><g class="y3tick"><text text-anchor="end" x="946.3266666666668" y="2.1999999999999993" style="font-family: Arial, sans-serif; font-size: 12px; fill: rgb(30, 41, 59); fill-opacity: 1; white-space: pre; opacity: 1;" transform="translate(0,561.02)">10</text></g><g class="y3tick"><text text-anchor="end" x="949.3266666666668" y="3.15" style="font-family: Arial, sans-serif; font-size: 9px; fill: rgb(30, 41, 59); fill-opacity: 1; white-space: pre; opacity: 1;" transform="translate(0,488.57)">2</text></g><g class="y3tick"><text text-anchor="end" x="949.3266666666668" y="3.15" style="font-family: Arial, sans-serif; font-size: 9px; fill: rgb(30, 41, 59); fill-opacity: 1; white-space: pre; opacity: 1;" transform="translate(0,446.19)">3</text></g><g class="y3tick"><text text-anchor="end" x="949.3266666666668" y="3.15" style="font-family: Arial, sans-serif; font-size: 9px; fill: rgb(30, 41, 59); fill-opacity: 1; white-space: pre; opacity: 1;" transform="translate(0,416.12)">4</text></g><g class="y3tick"><text text-anchor="end" x="949.3266666666668" y="3.15" style="font-family: Arial, sans-serif; font-size: 9px; fill: rgb(30, 41, 59); fill-opacity: 1; white-space: pre; opacity: 1;" transform="translate(0,392.8)">5</text></g><g class="y3tick"><text text-anchor="end" x="949.3266666666668" y="3.15" style="font-family: Arial, sans-serif; font-size: 9px; fill: rgb(30, 41, 59); fill-opacity: 1; white-space: pre; opacity: 1;" transform="translate(0,373.74)">6</text></g><g class="y3tick"><text text-anchor="end" x="949.3266666666668" y="3.15" style="font-family: Arial, sans-serif; font-size: 9px; fill: rgb(30, 41, 59); fill-opacity: 1; white-space: pre; opacity: 1;" transform="translate(0,357.63)">7</text></g><g class="y3tick"><text text-anchor="end" x="949.3266666666668" y="3.15" style="font-family: Arial, sans-serif; font-size: 9px; fill: rgb(30, 41, 59); fill-opacity: 1; white-space: pre; opacity: 1;" transform="translate(0,343.67)">8</text></g><g class="y3tick"><text text-anchor="end" x="949.3266666666668" y="3.15" style="font-family: Arial, sans-serif; font-size: 9px; fill: rgb(30, 41, 59); fill-opacity: 1; white-space: pre; opacity: 1;" transform="translate(0,331.36)">9</text></g><g class="y3tick"><text text-anchor="end" x="946.3266666666668" y="2.1999999999999993" style="font-family: Arial, sans-serif; font-size: 12px; fill: rgb(30, 41, 59); fill-opacity: 1; white-space: pre; opacity: 1;" transform="translate(0,320.35)">100</text></g><g class="y3tick"><text text-anchor="end" x="949.3266666666668" y="3.15" style="font-family: Arial, sans-serif; font-size: 9px; fill: rgb(30, 41, 59); fill-opacity: 1; white-space: pre; opacity: 1;" transform="translate(0,247.89)">2</text></g><g class="y3tick"><text text-anchor="end" x="949.3266666666668" y="3.15" style="font-family: Arial, sans-serif; font-size: 9px; fill: rgb(30, 41, 59); fill-opacity: 1; white-space: pre; opacity: 1;" transform="translate(0,205.51)">3</text></g><g class="y3tick"><text text-anchor="end" x="949.3266666666668" y="3.15" style="font-family: Arial, sans-serif; font-size: 9px; fill: rgb(30, 41, 59); fill-opacity: 1; white-space: pre; opacity: 1;" transform="translate(0,175.44)">4</text></g><g class="y3tick"><text text-anchor="end" x="949.3266666666668" y="3.15" style="font-family: Arial, sans-serif; font-size: 9px; fill: rgb(30, 41, 59); fill-opacity: 1; white-space: pre; opacity: 1;" transform="translate(0,152.12)">5</text></g><g class="y3tick"><text text-anchor="end" x="949.3266666666668" y="3.15" style="font-family: Arial, sans-serif; font-size: 9px; fill: rgb(30, 41, 59); fill-opacity: 1; white-space: pre; opacity: 1;" transform="translate(0,133.06)">6</text></g><g class="y3tick"><text text-anchor="end" x="949.3266666666668" y="3.15" style="font-family: Arial, sans-serif; font-size: 9px; fill: rgb(30, 41, 59); fill-opacity: 1; white-space: pre; opacity: 1;" transform="translate(0,116.95)">7</text></g><g class="y3tick"><text text-anchor="end" x="949.3266666666668" y="3.15" style="font-family: Arial, sans-serif; font-size: 9px; fill: rgb(30, 41, 59); fill-opacity: 1; white-space: pre; opacity: 1;" transform="translate(0,102.99)">8</text></g><g class="y3tick"><text text-anchor="end" x="949.3266666666668" y="3.15" style="font-family: Arial, sans-serif; font-size: 9px; fill: rgb(30, 41, 59); fill-opacity: 1; white-space: pre; opacity: 1;" transform="translate(0,90.68)">9</text></g></g><g class="overaxes-above"/></g></g><g class="polarlayer"/><g class="smithlayer"/><g class="ternarylayer"/><g class="geolayer"/><g class="funnelarealayer"/><g class="pielayer"/><g class="iciclelayer"/><g class="treemaplayer"/><g class="sunburstlayer"/><g class="glimages"/><defs id="topdefs-76975c"><g class="clips"/><clipPath id="legend76975c"><rect width="83" height="58" x="0" y="0"/></clipPath></defs><g class="layer-above"><g class="imagelayer"/><g class="shapelayer"/></g><g class="infolayer"><g class="legend" pointer-events="all" transform="translate(1305.02,80)"><rect class="bg" shape-rendering="crispEdges" width="83" height="58" x="0" y="0" style="stroke: rgb(68, 68, 68); stroke-opacity: 1; fill: rgb(255, 255, 255); fill-opacity: 1; stroke-width: 0px;"/><g class="scrollbox" transform="" clip-path="url(#legend76975c)"><g class="groups" transform=""><g class="traces" transform="translate(0,14.5)" style="opacity: 1;"><text class="legendtext" text-anchor="start" x="40" y="4.680000000000001" style="font-family: Arial, sans-serif; font-size: 12px; fill: rgb(30, 41, 59); fill-opacity: 1; white-space: pre;">2025.2</text><g class="layers" style="opacity: 1;"><g class="legendfill"/><g class="legendlines"/><g class="legendsymbols"><g class="legendpoints"><path class="scatterpts" transform="translate(20,0)" d="M5,0A5,5 0 1,1 0,-5A5,5 0 0,1 5,0Z" style="opacity: 1; stroke-width: 0.8px; fill: rgb(37, 99, 235); fill-opacity: 1; stroke: rgb(255, 255, 255); stroke-opacity: 1;"/></g></g></g><rect class="legendtoggle" x="0" y="-9.5" width="77.03125" height="19" style="fill: rgb(0, 0, 0); fill-opacity: 0;"/></g></g><g class="groups" transform="translate(0,10)"><g class="traces" transform="translate(0,33.5)" style="opacity: 1;"><text class="legendtext" text-anchor="start" x="40" y="4.680000000000001" style="font-family: Arial, sans-serif; font-size: 12px; fill: rgb(30, 41, 59); fill-opacity: 1; white-space: pre;">2026.1</text><g class="layers" style="opacity: 1;"><g class="legendfill"/><g class="legendlines"/><g class="legendsymbols"><g class="legendpoints"><path class="scatterpts" transform="translate(20,0)" d="M5,0A5,5 0 1,1 0,-5A5,5 0 0,1 5,0Z" style="opacity: 1; stroke-width: 0.8px; fill: rgb(217, 119, 6); fill-opacity: 1; stroke: rgb(255, 255, 255); stroke-opacity: 1;"/></g></g></g><rect class="legendtoggle" x="0" y="-9.5" width="77.03125" height="19" style="fill: rgb(0, 0, 0); fill-opacity: 0;"/></g></g></g><rect class="scrollbar" rx="20" ry="3" width="0" height="0" x="0" y="0" style="fill: rgb(128, 139, 164); fill-opacity: 1;"/></g><g class="g-gtitle"><text class="gtitle" x="28" y="40" text-anchor="start" dy="0em" style="font-family: Arial, sans-serif; font-size: 17px; fill: rgb(30, 41, 59); opacity: 1; font-weight: normal; white-space: pre;">Author integration pressure and late instability</text></g><g class="g-xtitle"><text class="xtitle" x="244.13666666666668" y="812.70625" text-anchor="middle" style="font-family: Arial, sans-serif; font-size: 14px; fill: rgb(30, 41, 59); opacity: 1; font-weight: normal; white-space: pre;">Commits per author at T3</text></g><g class="g-x2title"><text class="x2title" x="680.5000000000001" y="812.70625" text-anchor="middle" style="font-family: Arial, sans-serif; font-size: 14px; fill: rgb(30, 41, 59); opacity: 1; font-weight: normal; white-space: pre;">Commits per author at T3</text></g><g class="g-x3title"><text class="x3title" x="1116.8633333333335" y="812.70625" text-anchor="middle" style="font-family: Arial, sans-serif; font-size: 14px; fill: rgb(30, 41, 59); opacity: 1; font-weight: normal; white-space: pre;">Commits per author at T3</text></g><g class="g-ytitle"><text class="ytitle" transform="rotate(-90,25.590625000000003,425)" x="25.590625000000003" y="425" text-anchor="middle" style="font-family: Arial, sans-serif; font-size: 14px; fill: rgb(30, 41, 59); opacity: 1; font-weight: normal; white-space: pre;">Source churn (lines, log scale)</text></g><g class="g-y2title"><text class="y2title" transform="rotate(-90,461.965625,425)" x="461.965625" y="425" text-anchor="middle" style="font-family: Arial, sans-serif; font-size: 14px; fill: rgb(30, 41, 59); opacity: 1; font-weight: normal; white-space: pre;">Planning rework signal (log scale)</text></g><g class="g-y3title"><text class="y3title" transform="rotate(-90,901.996875,425)" x="901.996875" y="425" text-anchor="middle" style="font-family: Arial, sans-serif; font-size: 14px; fill: rgb(30, 41, 59); opacity: 1; font-weight: normal; white-space: pre;">Planning activity (log scale)</text></g><g class="annotation" data-index="0" style="opacity: 1;"><g class="annotation-text-g" transform="rotate(0,244.13666666666668,69.5)"><g class="cursor-pointer" transform="translate(174,59)"><rect class="bg" x="0.5" y="0.5" width="139" height="20" style="stroke-width: 1px; stroke: rgb(0, 0, 0); stroke-opacity: 0; fill: rgb(0, 0, 0); fill-opacity: 0;"/><text class="annotation-text" text-anchor="middle" x="70.046875" y="16" style="font-family: Arial, sans-serif; font-size: 16px; fill: rgb(30, 41, 59); fill-opacity: 1; white-space: pre;">Source churn at T3</text></g></g></g><g class="annotation" data-index="1" style="opacity: 1;"><g class="annotation-text-g" transform="rotate(0,680.5,69.5)"><g class="cursor-pointer" transform="translate(604,59)"><rect class="bg" x="0.5" y="0.5" width="153" height="20" style="stroke-width: 1px; stroke: rgb(0, 0, 0); stroke-opacity: 0; fill: rgb(0, 0, 0); fill-opacity: 0;"/><text class="annotation-text" text-anchor="middle" x="76.28125" y="16" style="font-family: Arial, sans-serif; font-size: 16px; fill: rgb(30, 41, 59); fill-opacity: 1; white-space: pre;">Late planning rework</text></g></g></g><g class="annotation" data-index="2" style="opacity: 1;"><g class="annotation-text-g" transform="rotate(0,1116.8633333333335,69.5)"><g class="cursor-pointer" transform="translate(1010,59)"><rect class="bg" x="0.5" y="0.5" width="212" height="20" style="stroke-width: 1px; stroke: rgb(0, 0, 0); stroke-opacity: 0; fill: rgb(0, 0, 0); fill-opacity: 0;"/><text class="annotation-text" text-anchor="middle" x="106.5" y="16" style="font-family: Arial, sans-serif; font-size: 16px; fill: rgb(30, 41, 59); fill-opacity: 1; white-space: pre;">Planning artifact activity at T3</text></g></g></g></g></svg>