<svg class="main-svg" xmlns="http://www.w3.org/2000/svg" xmlns:xlink="http://www.w3.org/1999/xlink" width="700" height="500" style="" viewBox="0 0 700 500"><rect x="0" y="0" width="700" height="500" style="fill: rgb(255, 255, 255); fill-opacity: 1;"/><defs id="defs-f8027e"><g class="clips"><clipPath id="clipf8027exyplot" class="plotclip"><rect width="225.89" height="320"/></clipPath><clipPath id="clipf8027ex2y2plot" class="plotclip"><rect width="225.89" height="320"/></clipPath><clipPath class="axesclip" id="clipf8027ex"><rect x="80" y="0" width="225.89" height="500"/></clipPath><clipPath class="axesclip" id="clipf8027ey"><rect x="0" y="100" width="700" height="320"/></clipPath><clipPath class="axesclip" id="clipf8027exy"><rect x="80" y="100" width="225.89" height="320"/></clipPath><clipPath class="axesclip" id="clipf8027ey2"><rect x="0" y="100" width="700" height="320"/></clipPath><clipPath class="axesclip" id="clipf8027exy2"><rect x="80" y="100" width="225.89" height="320"/></clipPath><clipPath class="axesclip" id="clipf8027ex2"><rect x="315.11" y="0" width="225.89" height="500"/></clipPath><clipPath class="axesclip" id="clipf8027ex2y"><rect x="315.11" y="100" width="225.89" height="320"/></clipPath><clipPath class="axesclip" id="clipf8027ex2y2"><rect x="315.11" y="100" width="225.89" height="320"/></clipPath></g><g class="gradients"/><g class="patterns"/></defs><g class="bglayer"><rect class="bg" x="80" y="100" width="225.89" height="320" style="fill: rgb(229, 236, 246); fill-opacity: 1; stroke-width: 0;"/><rect class="bg" x="315.11" y="100" width="225.89" height="320" style="fill: rgb(229, 236, 246); fill-opacity: 1; stroke-width: 0;"/></g><g class="layer-below"><g class="imagelayer"/><g class="shapelayer"/></g><g class="cartesianlayer"><g class="subplot xy"><g class="layer-subplot"><g class="shapelayer"/><g class="imagelayer"/></g><g class="minor-gridlayer"><g class="x"/><g class="y"/></g><g class="gridlayer"><g class="x"><path class="xgrid crisp" transform="translate(95.03999999999999,0)" d="M0,100v320" style="stroke: rgb(255, 255, 255); stroke-opacity: 1; stroke-width: 1px;"/><path class="xgrid crisp" transform="translate(192.94,0)" d="M0,100v320" style="stroke: rgb(255, 255, 255); stroke-opacity: 1; stroke-width: 1px;"/><path class="xgrid crisp" transform="translate(290.85,0)" d="M0,100v320" style="stroke: rgb(255, 255, 255); stroke-opacity: 1; stroke-width: 1px;"/></g><g class="y"><path class="ygrid crisp" transform="translate(0,380)" d="M80,0h225.89" style="stroke: rgb(255, 255, 255); stroke-opacity: 1; stroke-width: 1px;"/><path class="ygrid crisp" transform="translate(0,340)" d="M80,0h225.89" style="stroke: rgb(255, 255, 255); stroke-opacity: 1; stroke-width: 1px;"/><path class="ygrid crisp" transform="translate(0,300)" d="M80,0h225.89" style="stroke: rgb(255, 255, 255); stroke-opacity: 1; stroke-width: 1px;"/><path class="ygrid crisp" transform="translate(0,260)" d="M80,0h225.89" style="stroke: rgb(255, 255, 255); stroke-opacity: 1; stroke-width: 1px;"/><path class="ygrid crisp" transform="translate(0,220)" d="M80,0h225.89" style="stroke: rgb(255, 255, 255); stroke-opacity: 1; stroke-width: 1px;"/><path class="ygrid crisp" transform="translate(0,180)" d="M80,0h225.89" style="stroke: rgb(255, 255, 255); stroke-opacity: 1; stroke-width: 1px;"/><path class="ygrid crisp" transform="translate(0,140)" d="M80,0h225.89" style="stroke: rgb(255, 255, 255); stroke-opacity: 1; stroke-width: 1px;"/></g></g><g class="zerolinelayer"/><path class="xlines-below"/><path class="ylines-below"/><g class="overlines-below"/><g class="xaxislayer-below"/><g class="yaxislayer-below"/><g class="overaxes-below"/><g class="plot" transform="translate(80,100)" clip-path="url(#clipf8027exyplot)"><g class="scatterlayer mlayer"><g class="trace scatter traceb2070c" style="stroke-miterlimit: 2; opacity: 1;"><g class="fills"/><g class="errorbars"/><g class="lines"><path class="js-line" d="M15.04,208.7L112.94,218.54L210.85,216" style="vector-effect: none; fill: none; stroke: rgb(99, 110, 250); stroke-opacity: 1; stroke-width: 2px; opacity: 1;"/></g><g class="points"><path class="point" transform="translate(15.04,208.7)" d="M3,0A3,3 0 1,1 0,-3A3,3 0 0,1 3,0Z" style="opacity: 1; stroke-width: 0px; fill: rgb(99, 110, 250); fill-opacity: 1;"/><path class="point" transform="translate(112.94,218.54)" d="M3,0A3,3 0 1,1 0,-3A3,3 0 0,1 3,0Z" style="opacity: 1; stroke-width: 0px; fill: rgb(99, 110, 250); fill-opacity: 1;"/><path class="point" transform="translate(210.85,216)" d="M3,0A3,3 0 1,1 0,-3A3,3 0 0,1 3,0Z" style="opacity: 1; stroke-width: 0px; fill: rgb(99, 110, 250); fill-opacity: 1;"/></g><g class="text"/></g><g class="trace scatter trace2f6aae" style="stroke-miterlimit: 2; opacity: 1;"><g class="fills"/><g class="errorbars"/><g class="lines"><path class="js-line" d="M15.04,180.87L112.94,185.37L210.85,182" style="vector-effect: none; fill: none; stroke: rgb(239, 85, 59); stroke-opacity: 1; stroke-width: 2px; opacity: 1;"/></g><g class="points"><path class="point" transform="translate(15.04,180.87)" d="M3,0A3,3 0 1,1 0,-3A3,3 0 0,1 3,0Z" style="opacity: 1; stroke-width: 0px; fill: rgb(239, 85, 59); fill-opacity: 1;"/><path class="point" transform="translate(112.94,185.37)" d="M3,0A3,3 0 1,1 0,-3A3,3 0 0,1 3,0Z" style="opacity: 1; stroke-width: 0px; fill: rgb(239, 85, 59); fill-opacity: 1;"/><path class="point" transform="translate(210.85,182)" d="M3,0A3,3 0 1,1 0,-3A3,3 0 0,1 3,0Z" style="opacity: 1; stroke-width: 0px; fill: rgb(239, 85, 59); fill-opacity: 1;"/></g><g class="text"/></g><g class="trace scatter traced06519" style="stroke-miterlimit: 2; opacity: 1;"><g class="fills"/><g class="errorbars"/><g class="lines"><path class="js-line" d="M15.04,234.78L112.94,232.2L210.85,236" style="vector-effect: none; fill: none; stroke: rgb(0, 204, 150); stroke-opacity: 1; stroke-width: 2px; opacity: 1;"/></g><g class="points"><path class="point" transform="translate(15.04,234.78)" d="M3,0A3,3 0 1,1 0,-3A3,3 0 0,1 3,0Z" style="opacity: 1; stroke-width: 0px; fill: rgb(0, 204, 150); fill-opacity: 1;"/><path class="point" transform="translate(112.94,232.2)" d="M3,0A3,3 0 1,1 0,-3A3,3 0 0,1 3,0Z" style="opacity: 1; stroke-width: 0px; fill: rgb(0, 204, 150); fill-opacity: 1;"/><path class="point" transform="translate(210.85,236)" d="M3,0A3,3 0 1,1 0,-3A3,3 0 0,1 3,0Z" style="opacity: 1; stroke-width: 0px; fill: rgb(0, 204, 150); fill-opacity: 1;"/></g><g class="text"/></g><g class="trace scatter trace4648b9" style="stroke-miterlimit: 2; opacity: 1;"><g class="fills"/><g class="errorbars"/><g class="lines"><path class="js-line" d="M15.04,253.91L112.94,253.66L210.85,234" style="vector-effect: none; fill: none; stroke: rgb(171, 99, 250); stroke-opacity: 1; stroke-width: 2px; opacity: 1;"/></g><g class="points"><path class="point" transform="translate(15.04,253.91)" d="M3,0A3,3 0 1,1 0,-3A3,3 0 0,1 3,0Z" style="opacity: 1; stroke-width: 0px; fill: rgb(171, 99, 250); fill-opacity: 1;"/><path class="point" transform="translate(112.94,253.66)" d="M3,0A3,3 0 1,1 0,-3A3,3 0 0,1 3,0Z" style="opacity: 1; stroke-width: 0px; fill: rgb(171, 99, 250); fill-opacity: 1;"/><path class="point" transform="translate(210.85,234)" d="M3,0A3,3 0 1,1 0,-3A3,3 0 0,1 3,0Z" style="opacity: 1; stroke-width: 0px; fill: rgb(171, 99, 250); fill-opacity: 1;"/></g><g class="text"/></g><g class="trace scatter trace02a3c9" style="stroke-miterlimit: 2; opacity: 1;"><g class="fills"/><g class="errorbars"/><g class="lines"><path class="js-line" d="M15.04,233.04L112.94,241.95L210.85,228" style="vector-effect: none; fill: none; stroke: rgb(255, 161, 90); stroke-opacity: 1; stroke-width: 2px; opacity: 1;"/></g><g class="points"><path class="point" transform="translate(15.04,233.04)" d="M3,0A3,3 0 1,1 0,-3A3,3 0 0,1 3,0Z" style="opacity: 1; stroke-width: 0px; fill: rgb(255, 161, 90); fill-opacity: 1;"/><path class="point" transform="translate(112.94,241.95)" d="M3,0A3,3 0 1,1 0,-3A3,3 0 0,1 3,0Z" style="opacity: 1; stroke-width: 0px; fill: rgb(255, 161, 90); fill-opacity: 1;"/><path class="point" transform="translate(210.85,228)" d="M3,0A3,3 0 1,1 0,-3A3,3 0 0,1 3,0Z" style="opacity: 1; stroke-width: 0px; fill: rgb(255, 161, 90); fill-opacity: 1;"/></g><g class="text"/></g><g class="trace scatter trace02ec8e" style="stroke-miterlimit: 2; opacity: 1;"><g class="fills"/><g class="errorbars"/><g class="lines"><path class="js-line" d="M15.04,213.91L112.94,230.24L210.85,206" style="vector-effect: none; fill: none; stroke: rgb(25, 211, 243); stroke-opacity: 1; stroke-width: 2px; opacity: 1;"/></g><g class="points"><path class="point" transform="translate(15.04,213.91)" d="M3,0A3,3 0 1,1 0,-3A3,3 0 0,1 3,0Z" style="opacity: 1; stroke-width: 0px; fill: rgb(25, 211, 243); fill-opacity: 1;"/><path class="point" transform="translate(112.94,230.24)" d="M3,0A3,3 0 1,1 0,-3A3,3 0 0,1 3,0Z" style="opacity: 1; stroke-width: 0px; fill: rgb(25, 211, 243); fill-opacity: 1;"/><path class="point" transform="translate(210.85,206)" d="M3,0A3,3 0 1,1 0,-3A3,3 0 0,1 3,0Z" style="opacity: 1; stroke-width: 0px; fill: rgb(25, 211, 243); fill-opacity: 1;"/></g><g class="text"/></g></g></g><g class="overplot"/><path class="xlines-above crisp" d="M0,0" style="fill: none;"/><path class="ylines-above crisp" d="M0,0" style="fill: none;"/><g class="overlines-above"/><g class="xaxislayer-above"><g class="xtick"><text text-anchor="middle" x="0" y="433" transform="translate(95.03999999999999,0)" style="font-family: 'Open Sans', verdana, arial, sans-serif; font-size: 12px; fill: rgb(42, 63, 95); fill-opacity: 1; white-space: pre; opacity: 1;">T1</text></g><g class="xtick"><text text-anchor="middle" x="0" y="433" transform="translate(192.94,0)" style="font-family: 'Open Sans', verdana, arial, sans-serif; font-size: 12px; fill: rgb(42, 63, 95); fill-opacity: 1; white-space: pre; opacity: 1;">T2</text></g><g class="xtick"><text text-anchor="middle" x="0" y="433" transform="translate(290.85,0)" style="font-family: 'Open Sans', verdana, arial, sans-serif; font-size: 12px; fill: rgb(42, 63, 95); fill-opacity: 1; white-space: pre; opacity: 1;">T3</text></g></g><g class="yaxislayer-above"><g class="ytick"><text text-anchor="end" x="79" y="4.199999999999999" transform="translate(0,420)" style="font-family: 'Open Sans', verdana, arial, sans-serif; font-size: 12px; fill: rgb(42, 63, 95); fill-opacity: 1; white-space: pre; opacity: 1;">1</text></g><g class="ytick"><text text-anchor="end" x="79" y="4.199999999999999" style="font-family: 'Open Sans', verdana, arial, sans-serif; font-size: 12px; fill: rgb(42, 63, 95); fill-opacity: 1; white-space: pre; opacity: 1;" transform="translate(0,380)">1.5</text></g><g class="ytick"><text text-anchor="end" x="79" y="4.199999999999999" style="font-family: 'Open Sans', verdana, arial, sans-serif; font-size: 12px; fill: rgb(42, 63, 95); fill-opacity: 1; white-space: pre; opacity: 1;" transform="translate(0,340)">2</text></g><g class="ytick"><text text-anchor="end" x="79" y="4.199999999999999" style="font-family: 'Open Sans', verdana, arial, sans-serif; font-size: 12px; fill: rgb(42, 63, 95); fill-opacity: 1; white-space: pre; opacity: 1;" transform="translate(0,300)">2.5</text></g><g class="ytick"><text text-anchor="end" x="79" y="4.199999999999999" style="font-family: 'Open Sans', verdana, arial, sans-serif; font-size: 12px; fill: rgb(42, 63, 95); fill-opacity: 1; white-space: pre; opacity: 1;" transform="translate(0,260)">3</text></g><g class="ytick"><text text-anchor="end" x="79" y="4.199999999999999" style="font-family: 'Open Sans', verdana, arial, sans-serif; font-size: 12px; fill: rgb(42, 63, 95); fill-opacity: 1; white-space: pre; opacity: 1;" transform="translate(0,220)">3.5</text></g><g class="ytick"><text text-anchor="end" x="79" y="4.199999999999999" style="font-family: 'Open Sans', verdana, arial, sans-serif; font-size: 12px; fill: rgb(42, 63, 95); fill-opacity: 1; white-space: pre; opacity: 1;" transform="translate(0,180)">4</text></g><g class="ytick"><text text-anchor="end" x="79" y="4.199999999999999" style="font-family: 'Open Sans', verdana, arial, sans-serif; font-size: 12px; fill: rgb(42, 63, 95); fill-opacity: 1; white-space: pre; opacity: 1;" transform="translate(0,140)">4.5</text></g><g class="ytick"><text text-anchor="end" x="79" y="4.199999999999999" style="font-family: 'Open Sans', verdana, arial, sans-serif; font-size: 12px; fill: rgb(42, 63, 95); fill-opacity: 1; white-space: pre; opacity: 1;" transform="translate(0,100)">5</text></g></g><g class="overaxes-above"/></g><g class="subplot x2y2"><g class="layer-subplot"><g class="shapelayer"/><g class="imagelayer"/></g><g class="minor-gridlayer"><g class="x2"/><g class="y2"/></g><g class="gridlayer"><g class="x2"><path class="x2grid crisp" transform="translate(330.15000000000003,0)" d="M0,100v320" style="stroke: rgb(255, 255, 255); stroke-opacity: 1; stroke-width: 1px;"/><path class="x2grid crisp" transform="translate(428.05,0)" d="M0,100v320" style="stroke: rgb(255, 255, 255); stroke-opacity: 1; stroke-width: 1px;"/><path class="x2grid crisp" transform="translate(525.96,0)" d="M0,100v320" style="stroke: rgb(255, 255, 255); stroke-opacity: 1; stroke-width: 1px;"/></g><g class="y2"><path class="y2grid crisp" transform="translate(0,380)" d="M315.11,0h225.89" style="stroke: rgb(255, 255, 255); stroke-opacity: 1; stroke-width: 1px;"/><path class="y2grid crisp" transform="translate(0,340)" d="M315.11,0h225.89" style="stroke: rgb(255, 255, 255); stroke-opacity: 1; stroke-width: 1px;"/><path class="y2grid crisp" transform="translate(0,300)" d="M315.11,0h225.89" style="stroke: rgb(255, 255, 255); stroke-opacity: 1; stroke-width: 1px;"/><path class="y2grid crisp" transform="translate(0,260)" d="M315.11,0h225.89" style="stroke: rgb(255, 255, 255); stroke-opacity: 1; stroke-width: 1px;"/><path class="y2grid crisp" transform="translate(0,220)" d="M315.11,0h225.89" style="stroke: rgb(255, 255, 255); stroke-opacity: 1; stroke-width: 1px;"/><path class="y2grid crisp" transform="translate(0,180)" d="M315.11,0h225.89" style="stroke: rgb(255, 255, 255); stroke-opacity: 1; stroke-width: 1px;"/><path class="y2grid crisp" transform="translate(0,140)" d="M315.11,0h225.89" style="stroke: rgb(255, 255, 255); stroke-opacity: 1; stroke-width: 1px;"/></g></g><g class="zerolinelayer"/><path class="xlines-below"/><path class="ylines-below"/><g class="overlines-below"/><g class="xaxislayer-below"/><g class="yaxislayer-below"/><g class="overaxes-below"/><g class="plot" transform="translate(315.11,100)" clip-path="url(#clipf8027ex2y2plot)"><g class="scatterlayer mlayer"><g class="trace scatter tracea78b76" style="stroke-miterlimit: 2; opacity: 1;"><g class="fills"/><g class="errorbars"/><g class="lines"><path class="js-line" d="M15.04,214.55L112.94,232L210.85,200" style="vector-effect: none; fill: none; stroke: rgb(99, 110, 250); stroke-opacity: 1; stroke-width: 2px; opacity: 1;"/></g><g class="points"><path class="point" transform="translate(15.04,214.55)" d="M3,0A3,3 0 1,1 0,-3A3,3 0 0,1 3,0Z" style="opacity: 1; stroke-width: 0px; fill: rgb(99, 110, 250); fill-opacity: 1;"/><path class="point" transform="translate(112.94,232)" d="M3,0A3,3 0 1,1 0,-3A3,3 0 0,1 3,0Z" style="opacity: 1; stroke-width: 0px; fill: rgb(99, 110, 250); fill-opacity: 1;"/><path class="point" transform="translate(210.85,200)" d="M3,0A3,3 0 1,1 0,-3A3,3 0 0,1 3,0Z" style="opacity: 1; stroke-width: 0px; fill: rgb(99, 110, 250); fill-opacity: 1;"/></g><g class="text"/></g><g class="trace scatter tracee54f95" style="stroke-miterlimit: 2; opacity: 1;"><g class="fills"/><g class="errorbars"/><g class="lines"><path class="js-line" d="M15.04,149.09L112.94,188L210.85,137.78" style="vector-effect: none; fill: none; stroke: rgb(239, 85, 59); stroke-opacity: 1; stroke-width: 2px; opacity: 1;"/></g><g class="points"><path class="point" transform="translate(15.04,149.09)" d="M3,0A3,3 0 1,1 0,-3A3,3 0 0,1 3,0Z" style="opacity: 1; stroke-width: 0px; fill: rgb(239, 85, 59); fill-opacity: 1;"/><path class="point" transform="translate(112.94,188)" d="M3,0A3,3 0 1,1 0,-3A3,3 0 0,1 3,0Z" style="opacity: 1; stroke-width: 0px; fill: rgb(239, 85, 59); fill-opacity: 1;"/><path class="point" transform="translate(210.85,137.78)" d="M3,0A3,3 0 1,1 0,-3A3,3 0 0,1 3,0Z" style="opacity: 1; stroke-width: 0px; fill: rgb(239, 85, 59); fill-opacity: 1;"/></g><g class="text"/></g><g class="trace scatter traceac7f42" style="stroke-miterlimit: 2; opacity: 1;"><g class="fills"/><g class="errorbars"/><g class="lines"><path class="js-line" d="M15.04,225.45L112.94,252L210.85,191.11" style="vector-effect: none; fill: none; stroke: rgb(0, 204, 150); stroke-opacity: 1; stroke-width: 2px; opacity: 1;"/></g><g class="points"><path class="point" transform="translate(15.04,225.45)" d="M3,0A3,3 0 1,1 0,-3A3,3 0 0,1 3,0Z" style="opacity: 1; stroke-width: 0px; fill: rgb(0, 204, 150); fill-opacity: 1;"/><path class="point" transform="translate(112.94,252)" d="M3,0A3,3 0 1,1 0,-3A3,3 0 0,1 3,0Z" style="opacity: 1; stroke-width: 0px; fill: rgb(0, 204, 150); fill-opacity: 1;"/><path class="point" transform="translate(210.85,191.11)" d="M3,0A3,3 0 1,1 0,-3A3,3 0 0,1 3,0Z" style="opacity: 1; stroke-width: 0px; fill: rgb(0, 204, 150); fill-opacity: 1;"/></g><g class="text"/></g><g class="trace scatter trace4d336d" style="stroke-miterlimit: 2; opacity: 1;"><g class="fills"/><g class="errorbars"/><g class="lines"><path class="js-line" d="M15.04,203.64L112.94,240L210.85,226.67" style="vector-effect: none; fill: none; stroke: rgb(171, 99, 250); stroke-opacity: 1; stroke-width: 2px; opacity: 1;"/></g><g class="points"><path class="point" transform="translate(15.04,203.64)" d="M3,0A3,3 0 1,1 0,-3A3,3 0 0,1 3,0Z" style="opacity: 1; stroke-width: 0px; fill: rgb(171, 99, 250); fill-opacity: 1;"/><path class="point" transform="translate(112.94,240)" d="M3,0A3,3 0 1,1 0,-3A3,3 0 0,1 3,0Z" style="opacity: 1; stroke-width: 0px; fill: rgb(171, 99, 250); fill-opacity: 1;"/><path class="point" transform="translate(210.85,226.67)" d="M3,0A3,3 0 1,1 0,-3A3,3 0 0,1 3,0Z" style="opacity: 1; stroke-width: 0px; fill: rgb(171, 99, 250); fill-opacity: 1;"/></g><g class="text"/></g><g class="trace scatter trace770895" style="stroke-miterlimit: 2; opacity: 1;"><g class="fills"/><g class="errorbars"/><g class="lines"><path class="js-line" d="M15.04,200L112.94,232L210.85,213.33" style="vector-effect: none; fill: none; stroke: rgb(255, 161, 90); stroke-opacity: 1; stroke-width: 2px; opacity: 1;"/></g><g class="points"><path class="point" transform="translate(15.04,200)" d="M3,0A3,3 0 1,1 0,-3A3,3 0 0,1 3,0Z" style="opacity: 1; stroke-width: 0px; fill: rgb(255, 161, 90); fill-opacity: 1;"/><path class="point" transform="translate(112.94,232)" d="M3,0A3,3 0 1,1 0,-3A3,3 0 0,1 3,0Z" style="opacity: 1; stroke-width: 0px; fill: rgb(255, 161, 90); fill-opacity: 1;"/><path class="point" transform="translate(210.85,213.33)" d="M3,0A3,3 0 1,1 0,-3A3,3 0 0,1 3,0Z" style="opacity: 1; stroke-width: 0px; fill: rgb(255, 161, 90); fill-opacity: 1;"/></g><g class="text"/></g><g class="trace scatter tracecc85c5" style="stroke-miterlimit: 2; opacity: 1;"><g class="fills"/><g class="errorbars"/><g class="lines"><path class="js-line" d="M15.04,149.09L112.94,204L210.85,195.56" style="vector-effect: none; fill: none; stroke: rgb(25, 211, 243); stroke-opacity: 1; stroke-width: 2px; opacity: 1;"/></g><g class="points"><path class="point" transform="translate(15.04,149.09)" d="M3,0A3,3 0 1,1 0,-3A3,3 0 0,1 3,0Z" style="opacity: 1; stroke-width: 0px; fill: rgb(25, 211, 243); fill-opacity: 1;"/><path class="point" transform="translate(112.94,204)" d="M3,0A3,3 0 1,1 0,-3A3,3 0 0,1 3,0Z" style="opacity: 1; stroke-width: 0px; fill: rgb(25, 211, 243); fill-opacity: 1;"/><path class="point" transform="translate(210.85,195.56)" d="M3,0A3,3 0 1,1 0,-3A3,3 0 0,1 3,0Z" style="opacity: 1; stroke-width: 0px; fill: rgb(25, 211, 243); fill-opacity: 1;"/></g><g class="text"/></g></g></g><g class="overplot"/><path class="xlines-above crisp" d="M0,0" style="fill: none;"/><path class="ylines-above crisp" d="M0,0" style="fill: none;"/><g class="overlines-above"/><g class="xaxislayer-above"><g class="x2tick"><text text-anchor="middle" x="0" y="433" transform="translate(330.15000000000003,0)" style="font-family: 'Open Sans', verdana, arial, sans-serif; font-size: 12px; fill: rgb(42, 63, 95); fill-opacity: 1; white-space: pre; opacity: 1;">T1</text></g><g class="x2tick"><text text-anchor="middle" x="0" y="433" transform="translate(428.05,0)" style="font-family: 'Open Sans', verdana, arial, sans-serif; font-size: 12px; fill: rgb(42, 63, 95); fill-opacity: 1; white-space: pre; opacity: 1;">T2</text></g><g class="x2tick"><text text-anchor="middle" x="0" y="433" transform="translate(525.96,0)" style="font-family: 'Open Sans', verdana, arial, sans-serif; font-size: 12px; fill: rgb(42, 63, 95); fill-opacity: 1; white-space: pre; opacity: 1;">T3</text></g></g><g class="yaxislayer-above"/><g class="overaxes-above"/></g></g><g class="polarlayer"/><g class="smithlayer"/><g class="ternarylayer"/><g class="geolayer"/><g class="funnelarealayer"/><g class="pielayer"/><g class="iciclelayer"/><g class="treemaplayer"/><g class="sunburstlayer"/><g class="glimages"/><defs id="topdefs-f8027e"><g class="clips"/><clipPath id="legendf8027e"><rect width="138" height="143" x="0" y="0"/></clipPath></defs><g class="layer-above"><g class="imagelayer"/><g class="shapelayer"/></g><g class="infolayer"><g class="legend" pointer-events="all" transform="translate(550.22,100)"><rect class="bg" shape-rendering="crispEdges" width="138" height="143" x="0" y="0" style="stroke: rgb(68, 68, 68); stroke-opacity: 1; fill: rgb(255, 255, 255); fill-opacity: 1; stroke-width: 0px;"/><g class="scrollbox" transform="" clip-path="url(#legendf8027e)"><text class="legendtitletext" text-anchor="start" x="2" y="18.2" style="font-family: 'Open Sans', verdana, arial, sans-serif; font-size: 14px; fill: rgb(42, 63, 95); fill-opacity: 1; white-space: pre;">role</text><g class="groups" transform=""><g class="traces" transform="translate(0,32.7)" style="opacity: 1;"><text class="legendtext" text-anchor="start" x="40" y="4.680000000000001" style="font-family: 'Open Sans', verdana, arial, sans-serif; font-size: 12px; fill: rgb(42, 63, 95); fill-opacity: 1; white-space: pre;">Backend</text><g class="layers" style="opacity: 1;"><g class="legendfill"/><g class="legendlines"><path class="js-line" d="M5,0h30" style="fill: none; stroke: rgb(99, 110, 250); stroke-opacity: 1; stroke-width: 2px;"/></g><g class="legendsymbols"><g class="legendpoints"><path class="scatterpts" transform="translate(20,0)" d="M3,0A3,3 0 1,1 0,-3A3,3 0 0,1 3,0Z" style="opacity: 1; stroke-width: 0px; fill: rgb(99, 110, 250); fill-opacity: 1;"/></g></g></g><rect class="legendtoggle" x="0" y="-9.5" width="132.0625" height="19" style="fill: rgb(0, 0, 0); fill-opacity: 0;"/></g></g><g class="groups" transform=""><g class="traces" transform="translate(0,51.7)" style="opacity: 1;"><text class="legendtext" text-anchor="start" x="40" y="4.680000000000001" style="font-family: 'Open Sans', verdana, arial, sans-serif; font-size: 12px; fill: rgb(42, 63, 95); fill-opacity: 1; white-space: pre;">Frontend</text><g class="layers" style="opacity: 1;"><g class="legendfill"/><g class="legendlines"><path class="js-line" d="M5,0h30" style="fill: none; stroke: rgb(239, 85, 59); stroke-opacity: 1; stroke-width: 2px;"/></g><g class="legendsymbols"><g class="legendpoints"><path class="scatterpts" transform="translate(20,0)" d="M3,0A3,3 0 1,1 0,-3A3,3 0 0,1 3,0Z" style="opacity: 1; stroke-width: 0px; fill: rgb(239, 85, 59); fill-opacity: 1;"/></g></g></g><rect class="legendtoggle" x="0" y="-9.5" width="132.0625" height="19" style="fill: rgb(0, 0, 0); fill-opacity: 0;"/></g></g><g class="groups" transform=""><g class="traces" transform="translate(0,70.7)" style="opacity: 1;"><text class="legendtext" text-anchor="start" x="40" y="4.680000000000001" style="font-family: 'Open Sans', verdana, arial, sans-serif; font-size: 12px; fill: rgb(42, 63, 95); fill-opacity: 1; white-space: pre;">QA</text><g class="layers" style="opacity: 1;"><g class="legendfill"/><g class="legendlines"><path class="js-line" d="M5,0h30" style="fill: none; stroke: rgb(0, 204, 150); stroke-opacity: 1; stroke-width: 2px;"/></g><g class="legendsymbols"><g class="legendpoints"><path class="scatterpts" transform="translate(20,0)" d="M3,0A3,3 0 1,1 0,-3A3,3 0 0,1 3,0Z" style="opacity: 1; stroke-width: 0px; fill: rgb(0, 204, 150); fill-opacity: 1;"/></g></g></g><rect class="legendtoggle" x="0" y="-9.5" width="132.0625" height="19" style="fill: rgb(0, 0, 0); fill-opacity: 0;"/></g></g><g class="groups" transform=""><g class="traces" transform="translate(0,89.7)" style="opacity: 1;"><text class="legendtext" text-anchor="start" x="40" y="4.680000000000001" style="font-family: 'Open Sans', verdana, arial, sans-serif; font-size: 12px; fill: rgb(42, 63, 95); fill-opacity: 1; white-space: pre;">Project Manager</text><g class="layers" style="opacity: 1;"><g class="legendfill"/><g class="legendlines"><path class="js-line" d="M5,0h30" style="fill: none; stroke: rgb(171, 99, 250); stroke-opacity: 1; stroke-width: 2px;"/></g><g class="legendsymbols"><g class="legendpoints"><path class="scatterpts" transform="translate(20,0)" d="M3,0A3,3 0 1,1 0,-3A3,3 0 0,1 3,0Z" style="opacity: 1; stroke-width: 0px; fill: rgb(171, 99, 250); fill-opacity: 1;"/></g></g></g><rect class="legendtoggle" x="0" y="-9.5" width="132.0625" height="19" style="fill: rgb(0, 0, 0); fill-opacity: 0;"/></g></g><g class="groups" transform=""><g class="traces" transform="translate(0,108.7)" style="opacity: 1;"><text class="legendtext" text-anchor="start" x="40" y="4.680000000000001" style="font-family: 'Open Sans', verdana, arial, sans-serif; font-size: 12px; fill: rgb(42, 63, 95); fill-opacity: 1; white-space: pre;">Product Manager</text><g class="layers" style="opacity: 1;"><g class="legendfill"/><g class="legendlines"><path class="js-line" d="M5,0h30" style="fill: none; stroke: rgb(255, 161, 90); stroke-opacity: 1; stroke-width: 2px;"/></g><g class="legendsymbols"><g class="legendpoints"><path class="scatterpts" transform="translate(20,0)" d="M3,0A3,3 0 1,1 0,-3A3,3 0 0,1 3,0Z" style="opacity: 1; stroke-width: 0px; fill: rgb(255, 161, 90); fill-opacity: 1;"/></g></g></g><rect class="legendtoggle" x="0" y="-9.5" width="132.0625" height="19" style="fill: rgb(0, 0, 0); fill-opacity: 0;"/></g></g><g class="groups" transform=""><g class="traces" transform="translate(0,127.7)" style="opacity: 1;"><text class="legendtext" text-anchor="start" x="40" y="4.680000000000001" style="font-family: 'Open Sans', verdana, arial, sans-serif; font-size: 12px; fill: rgb(42, 63, 95); fill-opacity: 1; white-space: pre;">Scrum Master</text><g class="layers" style="opacity: 1;"><g class="legendfill"/><g class="legendlines"><path class="js-line" d="M5,0h30" style="fill: none; stroke: rgb(25, 211, 243); stroke-opacity: 1; stroke-width: 2px;"/></g><g class="legendsymbols"><g class="legendpoints"><path class="scatterpts" transform="translate(20,0)" d="M3,0A3,3 0 1,1 0,-3A3,3 0 0,1 3,0Z" style="opacity: 1; stroke-width: 0px; fill: rgb(25, 211, 243); fill-opacity: 1;"/></g></g></g><rect class="legendtoggle" x="0" y="-9.5" width="132.0625" height="19" style="fill: rgb(0, 0, 0); fill-opacity: 0;"/></g></g></g><rect class="scrollbar" rx="20" ry="3" width="0" height="0" x="0" y="0" style="fill: rgb(128, 139, 164); fill-opacity: 1;"/></g><g class="g-gtitle"><text class="gtitle" x="35" y="50" text-anchor="start" dy="0em" style="font-family: 'Open Sans', verdana, arial, sans-serif; font-size: 17px; fill: rgb(42, 63, 95); opacity: 1; font-weight: normal; white-space: pre;">M2 perceived role disruption by role</text></g><g class="g-xtitle"><text class="xtitle" x="192.945" y="460.3" text-anchor="middle" style="font-family: 'Open Sans', verdana, arial, sans-serif; font-size: 14px; fill: rgb(42, 63, 95); opacity: 1; font-weight: normal; white-space: pre;">Temporal marker</text></g><g class="g-x2title"><text class="x2title" x="428.055" y="460.3" text-anchor="middle" style="font-family: 'Open Sans', verdana, arial, sans-serif; font-size: 14px; fill: rgb(42, 63, 95); opacity: 1; font-weight: normal; white-space: pre;">Temporal marker</text></g><g class="g-ytitle"><text class="ytitle" transform="rotate(-90,38.0125,260)" x="38.0125" y="260" text-anchor="middle" style="font-family: 'Open Sans', verdana, arial, sans-serif; font-size: 14px; fill: rgb(42, 63, 95); opacity: 1; font-weight: normal; white-space: pre;">Perceived disruption agreement (1-5)</text></g><g class="g-y2title"/><g class="annotation" data-index="0" style="opacity: 1;"><g class="annotation-text-g" transform="rotate(0,192.945,91)"><g class="cursor-pointer" transform="translate(143,82)"><rect class="bg" x="0.5" y="0.5" width="98" height="17" style="stroke-width: 1px; stroke: rgb(0, 0, 0); stroke-opacity: 0; fill: rgb(0, 0, 0); fill-opacity: 0;"/><text class="annotation-text" text-anchor="middle" x="49.53125" y="13" style="font-family: 'Open Sans', verdana, arial, sans-serif; font-size: 12px; fill: rgb(42, 63, 95); fill-opacity: 1; white-space: pre;">Semestre=2025.2</text></g></g></g><g class="annotation" data-index="1" style="opacity: 1;"><g class="annotation-text-g" transform="rotate(0,428.055,91)"><g class="cursor-pointer" transform="translate(379,82)"><rect class="bg" x="0.5" y="0.5" width="98" height="17" style="stroke-width: 1px; stroke: rgb(0, 0, 0); stroke-opacity: 0; fill: rgb(0, 0, 0); fill-opacity: 0;"/><text class="annotation-text" text-anchor="middle" x="49.53125" y="13" style="font-family: 'Open Sans', verdana, arial, sans-serif; font-size: 12px; fill: rgb(42, 63, 95); fill-opacity: 1; white-space: pre;">Semestre=2026.1</text></g></g></g></g></svg>