<svg class="main-svg" xmlns="http://www.w3.org/2000/svg" xmlns:xlink="http://www.w3.org/1999/xlink" width="1200" height="820" style="" viewBox="0 0 1200 820"><rect x="0" y="0" width="1200" height="820" style="fill: rgb(255, 255, 255); fill-opacity: 1;"/><defs id="defs-f1fad9"><g class="clips"><clipPath id="clipf1fad9xyplot" class="plotclip"><rect width="480.48" height="254.10000000000002"/></clipPath><clipPath id="clipf1fad9x2y2plot" class="plotclip"><rect width="480.47999999999996" height="254.10000000000002"/></clipPath><clipPath id="clipf1fad9x3y3plot" class="plotclip"><rect width="480.48" height="254.1"/></clipPath><clipPath id="clipf1fad9x4y4plot" class="plotclip"><rect width="480.47999999999996" height="254.1"/></clipPath><clipPath class="axesclip" id="clipf1fad9x"><rect x="70" y="0" width="480.48" height="820"/></clipPath><clipPath class="axesclip" id="clipf1fad9y"><rect x="0" y="115" width="1200" height="254.10000000000002"/></clipPath><clipPath class="axesclip" id="clipf1fad9xy"><rect x="70" y="115" width="480.48" height="254.10000000000002"/></clipPath><clipPath class="axesclip" id="clipf1fad9y2"><rect x="0" y="115" width="1200" height="254.10000000000002"/></clipPath><clipPath class="axesclip" id="clipf1fad9xy2"><rect x="70" y="115" width="480.48" height="254.10000000000002"/></clipPath><clipPath class="axesclip" id="clipf1fad9y3"><rect x="0" y="465.90000000000003" width="1200" height="254.1"/></clipPath><clipPath class="axesclip" id="clipf1fad9xy3"><rect x="70" y="465.90000000000003" width="480.48" height="254.1"/></clipPath><clipPath class="axesclip" id="clipf1fad9y4"><rect x="0" y="465.90000000000003" width="1200" height="254.1"/></clipPath><clipPath class="axesclip" id="clipf1fad9xy4"><rect x="70" y="465.90000000000003" width="480.48" height="254.1"/></clipPath><clipPath class="axesclip" id="clipf1fad9x2"><rect x="681.5200000000001" y="0" width="480.47999999999996" height="820"/></clipPath><clipPath class="axesclip" id="clipf1fad9x2y"><rect x="681.5200000000001" y="115" width="480.47999999999996" height="254.10000000000002"/></clipPath><clipPath class="axesclip" id="clipf1fad9x2y2"><rect x="681.5200000000001" y="115" width="480.47999999999996" height="254.10000000000002"/></clipPath><clipPath class="axesclip" id="clipf1fad9x2y3"><rect x="681.5200000000001" y="465.90000000000003" width="480.47999999999996" height="254.1"/></clipPath><clipPath class="axesclip" id="clipf1fad9x2y4"><rect x="681.5200000000001" y="465.90000000000003" width="480.47999999999996" height="254.1"/></clipPath><clipPath class="axesclip" id="clipf1fad9x3"><rect x="70" y="0" width="480.48" height="820"/></clipPath><clipPath class="axesclip" id="clipf1fad9x3y"><rect x="70" y="115" width="480.48" height="254.10000000000002"/></clipPath><clipPath class="axesclip" id="clipf1fad9x3y2"><rect x="70" y="115" width="480.48" height="254.10000000000002"/></clipPath><clipPath class="axesclip" id="clipf1fad9x3y3"><rect x="70" y="465.90000000000003" width="480.48" height="254.1"/></clipPath><clipPath class="axesclip" id="clipf1fad9x3y4"><rect x="70" y="465.90000000000003" width="480.48" height="254.1"/></clipPath><clipPath class="axesclip" id="clipf1fad9x4"><rect x="681.5200000000001" y="0" width="480.47999999999996" height="820"/></clipPath><clipPath class="axesclip" id="clipf1fad9x4y"><rect x="681.5200000000001" y="115" width="480.47999999999996" height="254.10000000000002"/></clipPath><clipPath class="axesclip" id="clipf1fad9x4y2"><rect x="681.5200000000001" y="115" width="480.47999999999996" height="254.10000000000002"/></clipPath><clipPath class="axesclip" id="clipf1fad9x4y3"><rect x="681.5200000000001" y="465.90000000000003" width="480.47999999999996" height="254.1"/></clipPath><clipPath class="axesclip" id="clipf1fad9x4y4"><rect x="681.5200000000001" y="465.90000000000003" width="480.47999999999996" height="254.1"/></clipPath></g><g class="gradients"/><g class="patterns"/></defs><g class="bglayer"/><g class="layer-below"><g class="imagelayer"/><g class="shapelayer"/></g><g class="cartesianlayer"><g class="subplot xy"><g class="layer-subplot"><g class="shapelayer"/><g class="imagelayer"/></g><g class="minor-gridlayer"><g class="x"/><g class="y"/></g><g class="gridlayer"><g class="x"><path class="xgrid crisp" transform="translate(100.27,0)" d="M0,115v254.10000000000002" style="stroke: rgb(235, 240, 248); stroke-opacity: 1; stroke-width: 1px;"/><path class="xgrid crisp" transform="translate(310.24,0)" d="M0,115v254.10000000000002" style="stroke: rgb(235, 240, 248); stroke-opacity: 1; stroke-width: 1px;"/><path class="xgrid crisp" transform="translate(520.21,0)" d="M0,115v254.10000000000002" style="stroke: rgb(235, 240, 248); stroke-opacity: 1; stroke-width: 1px;"/></g><g class="y"><path class="ygrid crisp" transform="translate(0,326.36)" d="M70,0h480.48" style="stroke: rgb(235, 240, 248); stroke-opacity: 1; stroke-width: 1px;"/><path class="ygrid crisp" transform="translate(0,270.32)" d="M70,0h480.48" style="stroke: rgb(235, 240, 248); stroke-opacity: 1; stroke-width: 1px;"/><path class="ygrid crisp" transform="translate(0,214.29000000000002)" d="M70,0h480.48" style="stroke: rgb(235, 240, 248); stroke-opacity: 1; stroke-width: 1px;"/><path class="ygrid crisp" transform="translate(0,158.25)" d="M70,0h480.48" style="stroke: rgb(235, 240, 248); stroke-opacity: 1; stroke-width: 1px;"/></g></g><g class="zerolinelayer"/><path class="xlines-below"/><path class="ylines-below"/><g class="overlines-below"/><g class="xaxislayer-below"/><g class="yaxislayer-below"/><g class="overaxes-below"/><g class="plot" transform="translate(70,115)" clip-path="url(#clipf1fad9xyplot)"><g class="scatterlayer mlayer"><g class="trace scatter tracef03b63" style="stroke-miterlimit: 2; opacity: 1;"><g class="fills"/><g class="errorbars"/><g class="lines"><path class="js-line" d="M30.27,235.15L240.24,62.31L450.21,18.95" style="vector-effect: none; fill: none; stroke: rgb(124, 58, 237); stroke-opacity: 1; stroke-width: 3px; opacity: 1;"/></g><g class="points"><path class="point plotly-customdata" transform="translate(30.27,235.15)" d="M5,0A5,5 0 1,1 0,-5A5,5 0 0,1 5,0Z" style="opacity: 1; stroke-width: 0px; fill: rgb(124, 58, 237); fill-opacity: 1;"/><path class="point plotly-customdata" transform="translate(240.24,62.31)" d="M5,0A5,5 0 1,1 0,-5A5,5 0 0,1 5,0Z" style="opacity: 1; stroke-width: 0px; fill: rgb(124, 58, 237); fill-opacity: 1;"/><path class="point plotly-customdata" transform="translate(450.21,18.95)" d="M5,0A5,5 0 1,1 0,-5A5,5 0 0,1 5,0Z" style="opacity: 1; stroke-width: 0px; fill: rgb(124, 58, 237); fill-opacity: 1;"/></g><g class="text"/></g></g></g><g class="overplot"/><path class="xlines-above crisp" d="M0,0" style="fill: none;"/><path class="ylines-above crisp" d="M0,0" style="fill: none;"/><g class="overlines-above"/><g class="xaxislayer-above"><g class="xtick"><text text-anchor="middle" x="0" y="383.1" transform="translate(100.27,0)" style="font-family: Arial; font-size: 13px; fill: rgb(42, 63, 95); fill-opacity: 1; white-space: pre; opacity: 1;">T1</text></g><g class="xtick"><text text-anchor="middle" x="0" y="383.1" transform="translate(310.24,0)" style="font-family: Arial; font-size: 13px; fill: rgb(42, 63, 95); fill-opacity: 1; white-space: pre; opacity: 1;">T2</text></g><g class="xtick"><text text-anchor="middle" x="0" y="383.1" transform="translate(520.21,0)" style="font-family: Arial; font-size: 13px; fill: rgb(42, 63, 95); fill-opacity: 1; white-space: pre; opacity: 1;">T3</text></g></g><g class="yaxislayer-above"><g class="ytick"><text text-anchor="end" x="69" y="4.55" transform="translate(0,326.36)" style="font-family: Arial; font-size: 13px; fill: rgb(42, 63, 95); fill-opacity: 1; white-space: pre; opacity: 1;">0.6</text></g><g class="ytick"><text text-anchor="end" x="69" y="4.55" style="font-family: Arial; font-size: 13px; fill: rgb(42, 63, 95); fill-opacity: 1; white-space: pre; opacity: 1;" transform="translate(0,270.32)">0.8</text></g><g class="ytick"><text text-anchor="end" x="69" y="4.55" style="font-family: Arial; font-size: 13px; fill: rgb(42, 63, 95); fill-opacity: 1; white-space: pre; opacity: 1;" transform="translate(0,214.29000000000002)">1</text></g><g class="ytick"><text text-anchor="end" x="69" y="4.55" style="font-family: Arial; font-size: 13px; fill: rgb(42, 63, 95); fill-opacity: 1; white-space: pre; opacity: 1;" transform="translate(0,158.25)">1.2</text></g></g><g class="overaxes-above"/></g><g class="subplot x2y2"><g class="layer-subplot"><g class="shapelayer"/><g class="imagelayer"/></g><g class="minor-gridlayer"><g class="x2"/><g class="y2"/></g><g class="gridlayer"><g class="x2"/><g class="y2"><path class="y2grid crisp" transform="translate(0,315.65999999999997)" d="M681.5200000000001,0h480.47999999999996" style="stroke: rgb(235, 240, 248); stroke-opacity: 1; stroke-width: 1px;"/><path class="y2grid crisp" transform="translate(0,274.91999999999996)" d="M681.5200000000001,0h480.47999999999996" style="stroke: rgb(235, 240, 248); stroke-opacity: 1; stroke-width: 1px;"/><path class="y2grid crisp" transform="translate(0,234.18)" d="M681.5200000000001,0h480.47999999999996" style="stroke: rgb(235, 240, 248); stroke-opacity: 1; stroke-width: 1px;"/><path class="y2grid crisp" transform="translate(0,193.45)" d="M681.5200000000001,0h480.47999999999996" style="stroke: rgb(235, 240, 248); stroke-opacity: 1; stroke-width: 1px;"/><path class="y2grid crisp" transform="translate(0,152.71)" d="M681.5200000000001,0h480.47999999999996" style="stroke: rgb(235, 240, 248); stroke-opacity: 1; stroke-width: 1px;"/></g></g><g class="zerolinelayer"><path class="y2zl zl crisp" transform="translate(0,356.4)" d="M681.5200000000001,0h480.47999999999996" style="stroke: rgb(235, 240, 248); stroke-opacity: 1; stroke-width: 2px;"/></g><path class="xlines-below"/><path class="ylines-below"/><g class="overlines-below"/><g class="xaxislayer-below"/><g class="yaxislayer-below"/><g class="overaxes-below"/><g class="plot" transform="translate(681.5200000000001,115)" clip-path="url(#clipf1fad9x2y2plot)"><g class="boxlayer mlayer"><g class="trace boxes" style="opacity: 1;"><path class="box" d="M44.04,240.4H121.95M44.04,241.4H121.95V237.65H44.04ZM83,241.4V241.4M83,237.65V237.65M63.52,241.4H102.47M63.52,237.65H102.47" style="vector-effect: none; stroke-width: 2px; stroke: rgb(29, 78, 216); stroke-opacity: 1; fill: rgb(29, 78, 216); fill-opacity: 0.5;"/><g class="points"><path class="point" transform="translate(31.64,241.4)" d="M3.5,0A3.5,3.5 0 1,1 0,-3.5A3.5,3.5 0 0,1 3.5,0Z" style="opacity: 1; stroke-width: 0px; fill: rgb(37, 99, 235); fill-opacity: 1;"/><path class="point" transform="translate(20.61,241.4)" d="M3.5,0A3.5,3.5 0 1,1 0,-3.5A3.5,3.5 0 0,1 3.5,0Z" style="opacity: 1; stroke-width: 0px; fill: rgb(37, 99, 235); fill-opacity: 1;"/><path class="point" transform="translate(26.15,241.4)" d="M3.5,0A3.5,3.5 0 1,1 0,-3.5A3.5,3.5 0 0,1 3.5,0Z" style="opacity: 1; stroke-width: 0px; fill: rgb(37, 99, 235); fill-opacity: 1;"/><path class="point" transform="translate(23.14,241.4)" d="M3.5,0A3.5,3.5 0 1,1 0,-3.5A3.5,3.5 0 0,1 3.5,0Z" style="opacity: 1; stroke-width: 0px; fill: rgb(37, 99, 235); fill-opacity: 1;"/><path class="point" transform="translate(24.15,241.4)" d="M3.5,0A3.5,3.5 0 1,1 0,-3.5A3.5,3.5 0 0,1 3.5,0Z" style="opacity: 1; stroke-width: 0px; fill: rgb(37, 99, 235); fill-opacity: 1;"/><path class="point" transform="translate(25.45,241.4)" d="M3.5,0A3.5,3.5 0 1,1 0,-3.5A3.5,3.5 0 0,1 3.5,0Z" style="opacity: 1; stroke-width: 0px; fill: rgb(37, 99, 235); fill-opacity: 1;"/><path class="point" transform="translate(24.51,240.31)" d="M3.5,0A3.5,3.5 0 1,1 0,-3.5A3.5,3.5 0 0,1 3.5,0Z" style="opacity: 1; stroke-width: 0px; fill: rgb(37, 99, 235); fill-opacity: 1;"/><path class="point" transform="translate(24.99,229.66)" d="M3.5,0A3.5,3.5 0 1,1 0,-3.5A3.5,3.5 0 0,1 3.5,0Z" style="opacity: 1; stroke-width: 0px; fill: rgb(37, 99, 235); fill-opacity: 1;"/><path class="point" transform="translate(24.14,221.78)" d="M3.5,0A3.5,3.5 0 1,1 0,-3.5A3.5,3.5 0 0,1 3.5,0Z" style="opacity: 1; stroke-width: 0px; fill: rgb(37, 99, 235); fill-opacity: 1;"/></g></g><g class="trace boxes" style="opacity: 1;"><path class="box" d="M203.04,218.56H280.94M203.04,241.4H280.94V194.07H203.04ZM241.99,241.4V241.4M241.99,194.07V154.02M222.51,241.4H261.47M222.51,154.02H261.47" style="vector-effect: none; stroke-width: 2px; stroke: rgb(29, 78, 216); stroke-opacity: 1; fill: rgb(29, 78, 216); fill-opacity: 0.5;"/><g class="points"><path class="point" transform="translate(190.07,241.4)" d="M3.5,0A3.5,3.5 0 1,1 0,-3.5A3.5,3.5 0 0,1 3.5,0Z" style="opacity: 1; stroke-width: 0px; fill: rgb(37, 99, 235); fill-opacity: 1;"/><path class="point" transform="translate(174.87,241.4)" d="M3.5,0A3.5,3.5 0 1,1 0,-3.5A3.5,3.5 0 0,1 3.5,0Z" style="opacity: 1; stroke-width: 0px; fill: rgb(37, 99, 235); fill-opacity: 1;"/><path class="point" transform="translate(192.21,241.4)" d="M3.5,0A3.5,3.5 0 1,1 0,-3.5A3.5,3.5 0 0,1 3.5,0Z" style="opacity: 1; stroke-width: 0px; fill: rgb(37, 99, 235); fill-opacity: 1;"/><path class="point" transform="translate(174.56,228.51)" d="M3.5,0A3.5,3.5 0 1,1 0,-3.5A3.5,3.5 0 0,1 3.5,0Z" style="opacity: 1; stroke-width: 0px; fill: rgb(37, 99, 235); fill-opacity: 1;"/><path class="point" transform="translate(180.94,218.56)" d="M3.5,0A3.5,3.5 0 1,1 0,-3.5A3.5,3.5 0 0,1 3.5,0Z" style="opacity: 1; stroke-width: 0px; fill: rgb(37, 99, 235); fill-opacity: 1;"/><path class="point" transform="translate(189.15,202.08)" d="M3.5,0A3.5,3.5 0 1,1 0,-3.5A3.5,3.5 0 0,1 3.5,0Z" style="opacity: 1; stroke-width: 0px; fill: rgb(37, 99, 235); fill-opacity: 1;"/><path class="point" transform="translate(183.19,201.48)" d="M3.5,0A3.5,3.5 0 1,1 0,-3.5A3.5,3.5 0 0,1 3.5,0Z" style="opacity: 1; stroke-width: 0px; fill: rgb(37, 99, 235); fill-opacity: 1;"/><path class="point" transform="translate(186.23,171.85)" d="M3.5,0A3.5,3.5 0 1,1 0,-3.5A3.5,3.5 0 0,1 3.5,0Z" style="opacity: 1; stroke-width: 0px; fill: rgb(37, 99, 235); fill-opacity: 1;"/><path class="point" transform="translate(180.65,154.02)" d="M3.5,0A3.5,3.5 0 1,1 0,-3.5A3.5,3.5 0 0,1 3.5,0Z" style="opacity: 1; stroke-width: 0px; fill: rgb(37, 99, 235); fill-opacity: 1;"/></g></g><g class="trace boxes" style="opacity: 1;"><path class="box" d="M362.03,193.84H439.94M362.03,226.67H439.94V93.19H362.03ZM400.98,226.67V239.99M400.98,93.19V12.71M381.51,239.99H420.46M381.51,12.71H420.46" style="vector-effect: none; stroke-width: 2px; stroke: rgb(29, 78, 216); stroke-opacity: 1; fill: rgb(29, 78, 216); fill-opacity: 0.5;"/><g class="points"><path class="point" transform="translate(349.63,239.99)" d="M3.5,0A3.5,3.5 0 1,1 0,-3.5A3.5,3.5 0 0,1 3.5,0Z" style="opacity: 1; stroke-width: 0px; fill: rgb(37, 99, 235); fill-opacity: 1;"/><path class="point" transform="translate(333.87,227.44)" d="M3.5,0A3.5,3.5 0 1,1 0,-3.5A3.5,3.5 0 0,1 3.5,0Z" style="opacity: 1; stroke-width: 0px; fill: rgb(37, 99, 235); fill-opacity: 1;"/><path class="point" transform="translate(351.05,226.42)" d="M3.5,0A3.5,3.5 0 1,1 0,-3.5A3.5,3.5 0 0,1 3.5,0Z" style="opacity: 1; stroke-width: 0px; fill: rgb(37, 99, 235); fill-opacity: 1;"/><path class="point" transform="translate(332.8,221.17)" d="M3.5,0A3.5,3.5 0 1,1 0,-3.5A3.5,3.5 0 0,1 3.5,0Z" style="opacity: 1; stroke-width: 0px; fill: rgb(37, 99, 235); fill-opacity: 1;"/><path class="point" transform="translate(339.71,193.84)" d="M3.5,0A3.5,3.5 0 1,1 0,-3.5A3.5,3.5 0 0,1 3.5,0Z" style="opacity: 1; stroke-width: 0px; fill: rgb(37, 99, 235); fill-opacity: 1;"/><path class="point" transform="translate(348.61,138.27)" d="M3.5,0A3.5,3.5 0 1,1 0,-3.5A3.5,3.5 0 0,1 3.5,0Z" style="opacity: 1; stroke-width: 0px; fill: rgb(37, 99, 235); fill-opacity: 1;"/><path class="point" transform="translate(342.14,117.67)" d="M3.5,0A3.5,3.5 0 1,1 0,-3.5A3.5,3.5 0 0,1 3.5,0Z" style="opacity: 1; stroke-width: 0px; fill: rgb(37, 99, 235); fill-opacity: 1;"/><path class="point" transform="translate(345.54,19.77)" d="M3.5,0A3.5,3.5 0 1,1 0,-3.5A3.5,3.5 0 0,1 3.5,0Z" style="opacity: 1; stroke-width: 0px; fill: rgb(37, 99, 235); fill-opacity: 1;"/><path class="point" transform="translate(339.51,12.71)" d="M3.5,0A3.5,3.5 0 1,1 0,-3.5A3.5,3.5 0 0,1 3.5,0Z" style="opacity: 1; stroke-width: 0px; fill: rgb(37, 99, 235); fill-opacity: 1;"/></g></g></g></g><g class="overplot"/><path class="xlines-above crisp" d="M0,0" style="fill: none;"/><path class="ylines-above crisp" d="M0,0" style="fill: none;"/><g class="overlines-above"/><g class="xaxislayer-above"><g class="x2tick"><text text-anchor="middle" x="0" y="383.1" transform="translate(764.5200000000001,0)" style="font-family: Arial; font-size: 13px; fill: rgb(42, 63, 95); fill-opacity: 1; white-space: pre; opacity: 1;">T1</text></g><g class="x2tick"><text text-anchor="middle" x="0" y="383.1" transform="translate(923.5100000000001,0)" style="font-family: Arial; font-size: 13px; fill: rgb(42, 63, 95); fill-opacity: 1; white-space: pre; opacity: 1;">T2</text></g><g class="x2tick"><text text-anchor="middle" x="0" y="383.1" transform="translate(1082.5,0)" style="font-family: Arial; font-size: 13px; fill: rgb(42, 63, 95); fill-opacity: 1; white-space: pre; opacity: 1;">T3</text></g></g><g class="yaxislayer-above"><g class="y2tick"><text text-anchor="end" x="680.5200000000001" y="4.55" transform="translate(0,356.4)" style="font-family: Arial; font-size: 13px; fill: rgb(42, 63, 95); fill-opacity: 1; white-space: pre; opacity: 1;">0</text></g><g class="y2tick"><text text-anchor="end" x="680.5200000000001" y="4.55" style="font-family: Arial; font-size: 13px; fill: rgb(42, 63, 95); fill-opacity: 1; white-space: pre; opacity: 1;" transform="translate(0,315.65999999999997)">5k</text></g><g class="y2tick"><text text-anchor="end" x="680.5200000000001" y="4.55" style="font-family: Arial; font-size: 13px; fill: rgb(42, 63, 95); fill-opacity: 1; white-space: pre; opacity: 1;" transform="translate(0,274.91999999999996)">10k</text></g><g class="y2tick"><text text-anchor="end" x="680.5200000000001" y="4.55" style="font-family: Arial; font-size: 13px; fill: rgb(42, 63, 95); fill-opacity: 1; white-space: pre; opacity: 1;" transform="translate(0,234.18)">15k</text></g><g class="y2tick"><text text-anchor="end" x="680.5200000000001" y="4.55" style="font-family: Arial; font-size: 13px; fill: rgb(42, 63, 95); fill-opacity: 1; white-space: pre; opacity: 1;" transform="translate(0,193.45)">20k</text></g><g class="y2tick"><text text-anchor="end" x="680.5200000000001" y="4.55" style="font-family: Arial; font-size: 13px; fill: rgb(42, 63, 95); fill-opacity: 1; white-space: pre; opacity: 1;" transform="translate(0,152.71)">25k</text></g></g><g class="overaxes-above"/></g><g class="subplot x3y3"><g class="layer-subplot"><g class="shapelayer"/><g class="imagelayer"/></g><g class="minor-gridlayer"><g class="x3"/><g class="y3"/></g><g class="gridlayer"><g class="x3"/><g class="y3"><path class="y3grid crisp" transform="translate(0,702.21)" d="M70,0h480.48" style="stroke: rgb(235, 240, 248); stroke-opacity: 1; stroke-width: 1px;"/><path class="y3grid crisp" transform="translate(0,661.5600000000001)" d="M70,0h480.48" style="stroke: rgb(235, 240, 248); stroke-opacity: 1; stroke-width: 1px;"/><path class="y3grid crisp" transform="translate(0,620.9000000000001)" d="M70,0h480.48" style="stroke: rgb(235, 240, 248); stroke-opacity: 1; stroke-width: 1px;"/><path class="y3grid crisp" transform="translate(0,580.24)" d="M70,0h480.48" style="stroke: rgb(235, 240, 248); stroke-opacity: 1; stroke-width: 1px;"/><path class="y3grid crisp" transform="translate(0,539.59)" d="M70,0h480.48" style="stroke: rgb(235, 240, 248); stroke-opacity: 1; stroke-width: 1px;"/><path class="y3grid crisp" transform="translate(0,498.93000000000006)" d="M70,0h480.48" style="stroke: rgb(235, 240, 248); stroke-opacity: 1; stroke-width: 1px;"/></g></g><g class="zerolinelayer"/><path class="xlines-below"/><path class="ylines-below"/><g class="overlines-below"/><g class="xaxislayer-below"/><g class="yaxislayer-below"/><g class="overaxes-below"/><g class="plot" transform="translate(70,465.90000000000003)" clip-path="url(#clipf1fad9x3y3plot)"><g class="boxlayer mlayer"><g class="trace boxes" style="opacity: 1;"><path class="box" d="M44.04,114.34H121.95M44.04,157.22H121.95V58.76H44.04ZM83,157.22V241.4M83,58.76V31.76M63.52,241.4H102.47M63.52,31.76H102.47" style="vector-effect: none; stroke-width: 2px; stroke: rgb(21, 128, 61); stroke-opacity: 1; fill: rgb(21, 128, 61); fill-opacity: 0.5;"/><g class="points"><path class="point" transform="translate(30,241.4)" d="M3.5,0A3.5,3.5 0 1,1 0,-3.5A3.5,3.5 0 0,1 3.5,0Z" style="opacity: 1; stroke-width: 0px; fill: rgb(22, 163, 74); fill-opacity: 1;"/><path class="point" transform="translate(17.8,209.63)" d="M3.5,0A3.5,3.5 0 1,1 0,-3.5A3.5,3.5 0 0,1 3.5,0Z" style="opacity: 1; stroke-width: 0px; fill: rgb(22, 163, 74); fill-opacity: 1;"/><path class="point" transform="translate(33.02,139.76)" d="M3.5,0A3.5,3.5 0 1,1 0,-3.5A3.5,3.5 0 0,1 3.5,0Z" style="opacity: 1; stroke-width: 0px; fill: rgb(22, 163, 74); fill-opacity: 1;"/><path class="point" transform="translate(15.01,139.76)" d="M3.5,0A3.5,3.5 0 1,1 0,-3.5A3.5,3.5 0 0,1 3.5,0Z" style="opacity: 1; stroke-width: 0px; fill: rgb(22, 163, 74); fill-opacity: 1;"/><path class="point" transform="translate(21.78,114.34)" d="M3.5,0A3.5,3.5 0 1,1 0,-3.5A3.5,3.5 0 0,1 3.5,0Z" style="opacity: 1; stroke-width: 0px; fill: rgb(22, 163, 74); fill-opacity: 1;"/><path class="point" transform="translate(30.5,88.93)" d="M3.5,0A3.5,3.5 0 1,1 0,-3.5A3.5,3.5 0 0,1 3.5,0Z" style="opacity: 1; stroke-width: 0px; fill: rgb(22, 163, 74); fill-opacity: 1;"/><path class="point" transform="translate(24.14,63.52)" d="M3.5,0A3.5,3.5 0 1,1 0,-3.5A3.5,3.5 0 0,1 3.5,0Z" style="opacity: 1; stroke-width: 0px; fill: rgb(22, 163, 74); fill-opacity: 1;"/><path class="point" transform="translate(28.52,44.47)" d="M3.5,0A3.5,3.5 0 1,1 0,-3.5A3.5,3.5 0 0,1 3.5,0Z" style="opacity: 1; stroke-width: 0px; fill: rgb(22, 163, 74); fill-opacity: 1;"/><path class="point" transform="translate(20.6,31.76)" d="M3.5,0A3.5,3.5 0 1,1 0,-3.5A3.5,3.5 0 0,1 3.5,0Z" style="opacity: 1; stroke-width: 0px; fill: rgb(22, 163, 74); fill-opacity: 1;"/></g></g><g class="trace boxes" style="opacity: 1;"><path class="box" d="M203.04,69.88H280.94M203.04,111.17H280.94V50.82H203.04ZM241.99,111.17V139.76M241.99,50.82V31.76M222.51,139.76H261.47M222.51,31.76H261.47" style="vector-effect: none; stroke-width: 2px; stroke: rgb(21, 128, 61); stroke-opacity: 1; fill: rgb(21, 128, 61); fill-opacity: 0.5;"/><g class="points"><path class="point" transform="translate(187.5,241.4)" d="M3.5,0A3.5,3.5 0 1,1 0,-3.5A3.5,3.5 0 0,1 3.5,0Z" style="opacity: 1; stroke-width: 0px; fill: rgb(22, 163, 74); fill-opacity: 1;"/><path class="point" transform="translate(178.35,139.76)" d="M3.5,0A3.5,3.5 0 1,1 0,-3.5A3.5,3.5 0 0,1 3.5,0Z" style="opacity: 1; stroke-width: 0px; fill: rgb(22, 163, 74); fill-opacity: 1;"/><path class="point" transform="translate(190.41,101.64)" d="M3.5,0A3.5,3.5 0 1,1 0,-3.5A3.5,3.5 0 0,1 3.5,0Z" style="opacity: 1; stroke-width: 0px; fill: rgb(22, 163, 74); fill-opacity: 1;"/><path class="point" transform="translate(175.94,88.93)" d="M3.5,0A3.5,3.5 0 1,1 0,-3.5A3.5,3.5 0 0,1 3.5,0Z" style="opacity: 1; stroke-width: 0px; fill: rgb(22, 163, 74); fill-opacity: 1;"/><path class="point" transform="translate(181.34,69.88)" d="M3.5,0A3.5,3.5 0 1,1 0,-3.5A3.5,3.5 0 0,1 3.5,0Z" style="opacity: 1; stroke-width: 0px; fill: rgb(22, 163, 74); fill-opacity: 1;"/><path class="point" transform="translate(188.29,57.17)" d="M3.5,0A3.5,3.5 0 1,1 0,-3.5A3.5,3.5 0 0,1 3.5,0Z" style="opacity: 1; stroke-width: 0px; fill: rgb(22, 163, 74); fill-opacity: 1;"/><path class="point" transform="translate(183.12,50.82)" d="M3.5,0A3.5,3.5 0 1,1 0,-3.5A3.5,3.5 0 0,1 3.5,0Z" style="opacity: 1; stroke-width: 0px; fill: rgb(22, 163, 74); fill-opacity: 1;"/><path class="point" transform="translate(187.48,50.82)" d="M3.5,0A3.5,3.5 0 1,1 0,-3.5A3.5,3.5 0 0,1 3.5,0Z" style="opacity: 1; stroke-width: 0px; fill: rgb(22, 163, 74); fill-opacity: 1;"/><path class="point" transform="translate(179.21,31.76)" d="M3.5,0A3.5,3.5 0 1,1 0,-3.5A3.5,3.5 0 0,1 3.5,0Z" style="opacity: 1; stroke-width: 0px; fill: rgb(22, 163, 74); fill-opacity: 1;"/></g></g><g class="trace boxes" style="opacity: 1;"><path class="box" d="M362.03,31.76H439.94M362.03,95.29H439.94V24.35H362.03ZM400.98,95.29V165.16M400.98,24.35V12.7M381.51,165.16H420.46M381.51,12.7H420.46" style="vector-effect: none; stroke-width: 2px; stroke: rgb(21, 128, 61); stroke-opacity: 1; fill: rgb(21, 128, 61); fill-opacity: 0.5;"/><g class="points"><path class="point" transform="translate(346.01,215.98)" d="M3.5,0A3.5,3.5 0 1,1 0,-3.5A3.5,3.5 0 0,1 3.5,0Z" style="opacity: 1; stroke-width: 0px; fill: rgb(22, 163, 74); fill-opacity: 1;"/><path class="point" transform="translate(337.95,165.16)" d="M3.5,0A3.5,3.5 0 1,1 0,-3.5A3.5,3.5 0 0,1 3.5,0Z" style="opacity: 1; stroke-width: 0px; fill: rgb(22, 163, 74); fill-opacity: 1;"/><path class="point" transform="translate(348.53,71.99)" d="M3.5,0A3.5,3.5 0 1,1 0,-3.5A3.5,3.5 0 0,1 3.5,0Z" style="opacity: 1; stroke-width: 0px; fill: rgb(22, 163, 74); fill-opacity: 1;"/><path class="point" transform="translate(335.73,57.17)" d="M3.5,0A3.5,3.5 0 1,1 0,-3.5A3.5,3.5 0 0,1 3.5,0Z" style="opacity: 1; stroke-width: 0px; fill: rgb(22, 163, 74); fill-opacity: 1;"/><path class="point" transform="translate(340.57,31.76)" d="M3.5,0A3.5,3.5 0 1,1 0,-3.5A3.5,3.5 0 0,1 3.5,0Z" style="opacity: 1; stroke-width: 0px; fill: rgb(22, 163, 74); fill-opacity: 1;"/><path class="point" transform="translate(346.79,29.64)" d="M3.5,0A3.5,3.5 0 1,1 0,-3.5A3.5,3.5 0 0,1 3.5,0Z" style="opacity: 1; stroke-width: 0px; fill: rgb(22, 163, 74); fill-opacity: 1;"/><path class="point" transform="translate(342.23,25.41)" d="M3.5,0A3.5,3.5 0 1,1 0,-3.5A3.5,3.5 0 0,1 3.5,0Z" style="opacity: 1; stroke-width: 0px; fill: rgb(22, 163, 74); fill-opacity: 1;"/><path class="point" transform="translate(346.3,21.17)" d="M3.5,0A3.5,3.5 0 1,1 0,-3.5A3.5,3.5 0 0,1 3.5,0Z" style="opacity: 1; stroke-width: 0px; fill: rgb(22, 163, 74); fill-opacity: 1;"/><path class="point" transform="translate(338.2,12.7)" d="M3.5,0A3.5,3.5 0 1,1 0,-3.5A3.5,3.5 0 0,1 3.5,0Z" style="opacity: 1; stroke-width: 0px; fill: rgb(22, 163, 74); fill-opacity: 1;"/></g></g></g></g><g class="overplot"/><path class="xlines-above crisp" d="M0,0" style="fill: none;"/><path class="ylines-above crisp" d="M0,0" style="fill: none;"/><g class="overlines-above"/><g class="xaxislayer-above"><g class="x3tick"><text text-anchor="middle" x="0" y="734" transform="translate(153,0)" style="font-family: Arial; font-size: 13px; fill: rgb(42, 63, 95); fill-opacity: 1; white-space: pre; opacity: 1;">T1</text></g><g class="x3tick"><text text-anchor="middle" x="0" y="734" transform="translate(311.99,0)" style="font-family: Arial; font-size: 13px; fill: rgb(42, 63, 95); fill-opacity: 1; white-space: pre; opacity: 1;">T2</text></g><g class="x3tick"><text text-anchor="middle" x="0" y="734" transform="translate(470.98,0)" style="font-family: Arial; font-size: 13px; fill: rgb(42, 63, 95); fill-opacity: 1; white-space: pre; opacity: 1;">T3</text></g></g><g class="yaxislayer-above"><g class="y3tick"><text text-anchor="end" x="69" y="4.55" transform="translate(0,702.21)" style="font-family: Arial; font-size: 13px; fill: rgb(42, 63, 95); fill-opacity: 1; white-space: pre; opacity: 1;">1.4</text></g><g class="y3tick"><text text-anchor="end" x="69" y="4.55" style="font-family: Arial; font-size: 13px; fill: rgb(42, 63, 95); fill-opacity: 1; white-space: pre; opacity: 1;" transform="translate(0,661.5600000000001)">1.6</text></g><g class="y3tick"><text text-anchor="end" x="69" y="4.55" style="font-family: Arial; font-size: 13px; fill: rgb(42, 63, 95); fill-opacity: 1; white-space: pre; opacity: 1;" transform="translate(0,620.9000000000001)">1.8</text></g><g class="y3tick"><text text-anchor="end" x="69" y="4.55" style="font-family: Arial; font-size: 13px; fill: rgb(42, 63, 95); fill-opacity: 1; white-space: pre; opacity: 1;" transform="translate(0,580.24)">2</text></g><g class="y3tick"><text text-anchor="end" x="69" y="4.55" style="font-family: Arial; font-size: 13px; fill: rgb(42, 63, 95); fill-opacity: 1; white-space: pre; opacity: 1;" transform="translate(0,539.59)">2.2</text></g><g class="y3tick"><text text-anchor="end" x="69" y="4.55" style="font-family: Arial; font-size: 13px; fill: rgb(42, 63, 95); fill-opacity: 1; white-space: pre; opacity: 1;" transform="translate(0,498.93000000000006)">2.4</text></g></g><g class="overaxes-above"/></g><g class="subplot x4y4"><g class="layer-subplot"><g class="shapelayer"/><g class="imagelayer"/></g><g class="minor-gridlayer"><g class="x4"/><g class="y4"/></g><g class="gridlayer"><g class="x4"/><g class="y4"><path class="y4grid crisp" transform="translate(0,642.22)" d="M681.5200000000001,0h480.47999999999996" style="stroke: rgb(235, 240, 248); stroke-opacity: 1; stroke-width: 1px;"/><path class="y4grid crisp" transform="translate(0,564.44)" d="M681.5200000000001,0h480.47999999999996" style="stroke: rgb(235, 240, 248); stroke-opacity: 1; stroke-width: 1px;"/><path class="y4grid crisp" transform="translate(0,486.66)" d="M681.5200000000001,0h480.47999999999996" style="stroke: rgb(235, 240, 248); stroke-opacity: 1; stroke-width: 1px;"/></g></g><g class="zerolinelayer"><path class="y4zl zl crisp" transform="translate(0,720)" d="M681.5200000000001,0h480.47999999999996" style="stroke: rgb(235, 240, 248); stroke-opacity: 1; stroke-width: 2px;"/></g><path class="xlines-below"/><path class="ylines-below"/><g class="overlines-below"/><g class="xaxislayer-below"/><g class="yaxislayer-below"/><g class="overaxes-below"/><g class="plot" transform="translate(681.5200000000001,465.90000000000003)" clip-path="url(#clipf1fad9x4y4plot)"><g class="barlayer mlayer"><g class="trace bars" style="opacity: 1;"><g class="points"><g class="point"><path d="M5.34,254.1V254.1H48.05V254.1Z" style="vector-effect: none; opacity: 1; stroke-width: 0.8px; fill: rgb(148, 163, 184); fill-opacity: 1; stroke: rgb(51, 65, 85); stroke-opacity: 1;"/></g><g class="point"><path d="M58.73,254.1V254.1H101.43V254.1Z" style="vector-effect: none; opacity: 1; stroke-width: 0.8px; fill: rgb(148, 163, 184); fill-opacity: 1; stroke: rgb(51, 65, 85); stroke-opacity: 1;"/></g><g class="point"><path d="M112.11,254.1V254.1H154.82V254.1Z" style="vector-effect: none; opacity: 1; stroke-width: 0.8px; fill: rgb(249, 115, 22); fill-opacity: 1; stroke: rgb(51, 65, 85); stroke-opacity: 1;"/></g><g class="point"><path d="M165.5,254.1V251.42H208.21V254.1Z" style="vector-effect: none; opacity: 1; stroke-width: 0.8px; fill: rgb(249, 115, 22); fill-opacity: 1; stroke: rgb(51, 65, 85); stroke-opacity: 1;"/><text class="bartext bartext-outside" text-anchor="middle" data-notex="1" x="0" y="0" style="font-family: Arial; font-size: 13px; fill: rgb(42, 63, 95); fill-opacity: 1; white-space: pre;" transform="translate(186.85500000000002,245.77473548387096)scale(0.8817548387096776)">baseline</text></g><g class="point"><path d="M218.89,254.1V250.02H261.59V254.1Z" style="vector-effect: none; opacity: 1; stroke-width: 0.8px; fill: rgb(249, 115, 22); fill-opacity: 1; stroke: rgb(51, 65, 85); stroke-opacity: 1;"/><text class="bartext bartext-outside" text-anchor="middle" data-notex="1" x="0" y="0" style="font-family: Arial; font-size: 13px; fill: rgb(42, 63, 95); fill-opacity: 1; white-space: pre;" transform="translate(240.23999999999998,244.37535483870968)scale(0.881548387096774)">baseline</text></g><g class="point"><path d="M272.27,254.1V241.27H314.98V254.1Z" style="vector-effect: none; opacity: 1; stroke-width: 0.8px; fill: rgb(249, 115, 22); fill-opacity: 1; stroke: rgb(51, 65, 85); stroke-opacity: 1;"/><text class="bartext bartext-outside" text-anchor="middle" data-notex="1" x="0" y="0" style="font-family: Arial; font-size: 13px; fill: rgb(42, 63, 95); fill-opacity: 1; white-space: pre;" transform="translate(293.625,235.62473548387098)scale(0.8817548387096782)">baseline</text></g><g class="point"><path d="M325.66,254.1V240.72H368.37V254.1Z" style="vector-effect: none; opacity: 1; stroke-width: 0.8px; fill: rgb(249, 115, 22); fill-opacity: 1; stroke: rgb(51, 65, 85); stroke-opacity: 1;"/><text class="bartext bartext-outside" text-anchor="middle" data-notex="1" x="0" y="0" style="font-family: Arial; font-size: 13px; fill: rgb(42, 63, 95); fill-opacity: 1; white-space: pre;" transform="translate(347.015,235.07473548387097)scale(0.881754838709677)">baseline</text></g><g class="point"><path d="M379.05,254.1V152.69H421.75V254.1Z" style="vector-effect: none; opacity: 1; stroke-width: 0.8px; fill: rgb(249, 115, 22); fill-opacity: 1; stroke: rgb(51, 65, 85); stroke-opacity: 1;"/><text class="bartext bartext-inside" text-anchor="middle" data-notex="1" x="0" y="0" style="font-family: Arial; font-size: 13px; fill: rgb(68, 68, 68); fill-opacity: 1; white-space: pre;" transform="translate(400.4,184.40875)rotate(90 0 -4.5)">baseline</text></g><g class="point"><path d="M432.43,254.1V12.7H475.14V254.1Z" style="vector-effect: none; opacity: 1; stroke-width: 0.8px; fill: rgb(249, 115, 22); fill-opacity: 1; stroke: rgb(51, 65, 85); stroke-opacity: 1;"/><text class="bartext bartext-inside" text-anchor="middle" data-notex="1" x="0" y="0" style="font-family: Arial; font-size: 13px; fill: rgb(68, 68, 68); fill-opacity: 1; white-space: pre;" transform="translate(453.78499999999997,44.41875)rotate(90 0 -4.5)">baseline</text></g></g></g></g></g><g class="overplot"/><path class="xlines-above crisp" d="M0,0" style="fill: none;"/><path class="ylines-above crisp" d="M0,0" style="fill: none;"/><g class="overlines-above"/><g class="xaxislayer-above"><g class="x4tick"><text text-anchor="start" x="0" y="734" transform="translate(708.2100000000002,0) rotate(30,0,727.5)" style="font-family: Arial; font-size: 13px; fill: rgb(42, 63, 95); fill-opacity: 1; white-space: pre; opacity: 1;">TEAM_03</text></g><g class="x4tick"><text text-anchor="start" x="0" y="734" transform="translate(761.6000000000001,0) rotate(30,0,727.5)" style="font-family: Arial; font-size: 13px; fill: rgb(42, 63, 95); fill-opacity: 1; white-space: pre; opacity: 1;">TEAM_05</text></g><g class="x4tick"><text text-anchor="start" x="0" y="734" transform="translate(814.9900000000001,0) rotate(30,0,727.5)" style="font-family: Arial; font-size: 13px; fill: rgb(42, 63, 95); fill-opacity: 1; white-space: pre; opacity: 1;">TEAM_07</text></g><g class="x4tick"><text text-anchor="start" x="0" y="734" transform="translate(868.3700000000001,0) rotate(30,0,727.5)" style="font-family: Arial; font-size: 13px; fill: rgb(42, 63, 95); fill-opacity: 1; white-space: pre; opacity: 1;">TEAM_08</text></g><g class="x4tick"><text text-anchor="start" x="0" y="734" transform="translate(921.7600000000001,0) rotate(30,0,727.5)" style="font-family: Arial; font-size: 13px; fill: rgb(42, 63, 95); fill-opacity: 1; white-space: pre; opacity: 1;">TEAM_01</text></g><g class="x4tick"><text text-anchor="start" x="0" y="734" transform="translate(975.1500000000001,0) rotate(30,0,727.5)" style="font-family: Arial; font-size: 13px; fill: rgb(42, 63, 95); fill-opacity: 1; white-space: pre; opacity: 1;">TEAM_10</text></g><g class="x4tick"><text text-anchor="start" x="0" y="734" transform="translate(1028.5300000000002,0) rotate(30,0,727.5)" style="font-family: Arial; font-size: 13px; fill: rgb(42, 63, 95); fill-opacity: 1; white-space: pre; opacity: 1;">TEAM_04</text></g><g class="x4tick"><text text-anchor="start" x="0" y="734" transform="translate(1081.92,0) rotate(30,0,727.5)" style="font-family: Arial; font-size: 13px; fill: rgb(42, 63, 95); fill-opacity: 1; white-space: pre; opacity: 1;">TEAM_02</text></g><g class="x4tick"><text text-anchor="start" x="0" y="734" transform="translate(1135.3100000000002,0) rotate(30,0,727.5)" style="font-family: Arial; font-size: 13px; fill: rgb(42, 63, 95); fill-opacity: 1; white-space: pre; opacity: 1;">TEAM_09</text></g></g><g class="yaxislayer-above"><g class="y4tick"><text text-anchor="end" x="680.5200000000001" y="4.55" transform="translate(0,720)" style="font-family: Arial; font-size: 13px; fill: rgb(42, 63, 95); fill-opacity: 1; white-space: pre; opacity: 1;">0</text></g><g class="y4tick"><text text-anchor="end" x="680.5200000000001" y="4.55" style="font-family: Arial; font-size: 13px; fill: rgb(42, 63, 95); fill-opacity: 1; white-space: pre; opacity: 1;" transform="translate(0,642.22)">5k</text></g><g class="y4tick"><text text-anchor="end" x="680.5200000000001" y="4.55" style="font-family: Arial; font-size: 13px; fill: rgb(42, 63, 95); fill-opacity: 1; white-space: pre; opacity: 1;" transform="translate(0,564.44)">10k</text></g><g class="y4tick"><text text-anchor="end" x="680.5200000000001" y="4.55" style="font-family: Arial; font-size: 13px; fill: rgb(42, 63, 95); fill-opacity: 1; white-space: pre; opacity: 1;" transform="translate(0,486.66)">15k</text></g></g><g class="overaxes-above"/></g></g><g class="polarlayer"/><g class="smithlayer"/><g class="ternarylayer"/><g class="geolayer"/><g class="funnelarealayer"/><g class="pielayer"/><g class="iciclelayer"/><g class="treemaplayer"/><g class="sunburstlayer"/><g class="glimages"/><defs id="topdefs-f1fad9"><g class="clips"/></defs><g class="layer-above"><g class="imagelayer"/><g class="shapelayer"/></g><g class="infolayer"><g class="g-gtitle"><text class="gtitle" x="24" y="57.5" text-anchor="start" dy="0em" style="font-family: Arial; font-size: 18px; fill: rgb(42, 63, 95); opacity: 1; font-weight: normal; white-space: pre;">Coverage-aware M5 triangulation for 2025.2</text></g><g class="g-xtitle"/><g class="g-x2title"/><g class="g-x3title"/><g class="g-x4title"/><g class="g-ytitle"><text class="ytitle" transform="rotate(-90,25.221874999999997,242.05)" x="25.221874999999997" y="242.05" text-anchor="middle" style="font-family: Arial; font-size: 16px; fill: rgb(42, 63, 95); opacity: 1; font-weight: normal; white-space: pre;">Markers per 1k tokens</text></g><g class="g-y2title"><text class="y2title" transform="rotate(-90,633.846875,242.05)" x="633.846875" y="242.05" text-anchor="middle" style="font-family: Arial; font-size: 16px; fill: rgb(42, 63, 95); opacity: 1; font-weight: normal; white-space: pre;">Clean changed lines</text></g><g class="g-y3title"><text class="y3title" transform="rotate(-90,25.221874999999997,592.95)" x="25.221874999999997" y="592.95" text-anchor="middle" style="font-family: Arial; font-size: 16px; fill: rgb(42, 63, 95); opacity: 1; font-weight: normal; white-space: pre;">Composite score</text></g><g class="g-y4title"><text class="y4title" transform="rotate(-90,633.846875,592.95)" x="633.846875" y="592.95" text-anchor="middle" style="font-family: Arial; font-size: 16px; fill: rgb(42, 63, 95); opacity: 1; font-weight: normal; white-space: pre;">Clean rework lines</text></g><g class="annotation" data-index="0" style="opacity: 1;"><g class="annotation-text-g" transform="rotate(0,310.24,104.5)"><g class="cursor-pointer" transform="translate(193,94)"><rect class="bg" x="0.5" y="0.5" width="234" height="20" style="stroke-width: 1px; stroke: rgb(0, 0, 0); stroke-opacity: 0; fill: rgb(0, 0, 0); fill-opacity: 0;"/><text class="annotation-text" text-anchor="middle" x="117.609375" y="16" style="font-family: Arial; font-size: 16px; fill: rgb(42, 63, 95); fill-opacity: 1; white-space: pre;">M5 global friction-marker density</text></g></g></g><g class="annotation" data-index="1" style="opacity: 1;"><g class="annotation-text-g" transform="rotate(0,921.76,104.5)"><g class="cursor-pointer" transform="translate(834,94)"><rect class="bg" x="0.5" y="0.5" width="174" height="20" style="stroke-width: 1px; stroke: rgb(0, 0, 0); stroke-opacity: 0; fill: rgb(0, 0, 0); fill-opacity: 0;"/><text class="annotation-text" text-anchor="middle" x="87.375" y="16" style="font-family: Arial; font-size: 16px; fill: rgb(42, 63, 95); fill-opacity: 1; white-space: pre;">M4 clean churn by team</text></g></g></g><g class="annotation" data-index="2" style="opacity: 1;"><g class="annotation-text-g" transform="rotate(0,310.24,455.40000000000003)"><g class="cursor-pointer" transform="translate(183,445)"><rect class="bg" x="0.5" y="0.5" width="253" height="20" style="stroke-width: 1px; stroke: rgb(0, 0, 0); stroke-opacity: 0; fill: rgb(0, 0, 0); fill-opacity: 0;"/><text class="annotation-text" text-anchor="middle" x="126.953125" y="16" style="font-family: Arial; font-size: 16px; fill: rgb(42, 63, 95); fill-opacity: 1; white-space: pre;">Evaluator composite score by team</text></g></g></g><g class="annotation" data-index="3" style="opacity: 1;"><g class="annotation-text-g" transform="rotate(0,921.76,455.40000000000003)"><g class="cursor-pointer" transform="translate(819,445)"><rect class="bg" x="0.5" y="0.5" width="205" height="20" style="stroke-width: 1px; stroke: rgb(0, 0, 0); stroke-opacity: 0; fill: rgb(0, 0, 0); fill-opacity: 0;"/><text class="annotation-text" text-anchor="middle" x="102.9375" y="16" style="font-family: Arial; font-size: 16px; fill: rgb(42, 63, 95); fill-opacity: 1; white-space: pre;">M8 T3 clean rework by team</text></g></g></g><g class="annotation" data-index="4" style="opacity: 1;"><g class="annotation-text-g" transform="rotate(0,396,789.65)"><g class="cursor-pointer" transform="translate(70,781)"><rect class="bg" x="0.5" y="0.5" width="651" height="17" style="stroke-width: 1px; stroke: rgb(0, 0, 0); stroke-opacity: 0; fill: rgb(0, 0, 0); fill-opacity: 0;"/><text class="annotation-text" text-anchor="start" x="2" y="13" style="font-family: Arial; font-size: 12px; fill: rgb(71, 85, 105); fill-opacity: 1; white-space: pre;">M5 is measured only in the 2025.2 global transcript corpus; 2026.1 is unavailable/not measured and is not plotted as zero.</text></g></g></g></g></svg>